<svg width="60" height="60" viewBox="0 0 60 60" fill="none" xmlns="http://www.w3.org/2000/svg">
<path d="M42.2788 54.1453C49.0106 54.1453 54.4677 48.6882 54.4677 41.9564C54.4677 35.2246 49.0106 29.7675 42.2788 29.7675C35.547 29.7675 30.0898 35.2246 30.0898 41.9564C30.0898 48.6882 35.547 54.1453 42.2788 54.1453Z" fill="#EDFF81"/>
<path d="M45.9353 22.454C50.6476 22.454 54.4676 18.634 54.4676 13.9218C54.4676 9.20955 50.6476 5.38953 45.9353 5.38953C41.2231 5.38953 37.4031 9.20955 37.4031 13.9218C37.4031 18.634 41.2231 22.454 45.9353 22.454Z" fill="white"/>
<path d="M14.3174 54.0722C19.0297 54.0722 22.8497 50.2522 22.8497 45.5399C22.8497 40.8277 19.0297 37.0077 14.3174 37.0077C9.60518 37.0077 5.78516 40.8277 5.78516 45.5399C5.78516 50.2522 9.60518 54.0722 14.3174 54.0722Z" fill="white"/>
<path d="M17.9009 29.7674C24.6326 29.7674 30.0898 24.3102 30.0898 17.5785C30.0898 10.8467 24.6326 5.38953 17.9009 5.38953C11.1691 5.38953 5.71191 10.8467 5.71191 17.5785C5.71191 24.3102 11.1691 29.7674 17.9009 29.7674Z" fill="#EDFF81"/>
</svg>
