<svg width="50" height="50" viewBox="0 0 50 50" fill="none" xmlns="http://www.w3.org/2000/svg">
<g clip-path="url(#clip0_7_159)">
<path d="M11.8164 25C11.8164 15.1597 18.357 6.53311 27.6252 3.83809L29.3908 0.397852C27.9415 0.141602 26.4674 0 25 0C11.2686 0 0 11.2686 0 25C0 38.7314 11.2686 50 25 50C26.4689 50 27.9449 49.8584 29.396 49.6015L29.0827 46.4504C19.0464 44.2667 11.8164 35.3508 11.8164 25Z" fill="#7CAEF8"/>
<path fill-rule="evenodd" clip-rule="evenodd" d="M30.6794 3.15448L37.3048 3.37889C45.0684 7.74413 50.0001 15.9181 50.0001 25C50.0001 26.4634 49.8486 27.9471 49.5909 29.3895L49.5893 29.3886L49.5899 29.3945L49.5605 29.6583C49.209 31.5332 48.5256 33.4082 47.7052 35.2246C47.6616 35.3265 47.6107 35.4356 47.5598 35.5448C47.5082 35.6554 47.4566 35.766 47.4124 35.8692V35.8983C47.3978 35.9424 47.3757 35.9791 47.3537 36.0158C47.3317 36.0524 47.3098 36.089 47.2951 36.1328C46.9143 36.8945 46.4749 37.6269 46.0354 38.3594C45.7718 38.7695 45.4787 39.1797 45.1564 39.5897C44.9513 39.9121 44.7168 40.2344 44.4533 40.5566C44.0724 41.0253 43.6915 41.4648 43.252 41.9044C41.5529 43.7793 39.5314 45.3614 37.3341 46.6212H30.2736C25.0588 43.6328 21.0159 38.799 19.0822 33.1153C19.0822 33.1153 19.0822 33.1153 19.0822 33.1153L19.082 33.1153H19.0235L18.7686 32.2329C18.724 32.0894 18.6826 31.9459 18.6443 31.8025C18.6438 31.8006 18.6433 31.7988 18.6428 31.797H18.6427C18.5861 31.6046 18.5339 31.4121 18.4843 31.2197L18.2327 30.3028H18.2618C17.881 28.5451 17.6759 26.7872 17.6759 25.0001L17.6759 24.6778L17.6172 24.7071L17.703 23.8208C17.7036 23.8155 17.7041 23.8103 17.7046 23.805C17.7048 23.803 17.705 23.8009 17.7052 23.7989C17.7148 23.6647 17.7212 23.5336 17.7276 23.4036L17.7276 23.4026M17.8449 22.1564C17.8729 21.9679 17.9062 21.7848 17.9395 21.6016L17.9103 21.6016L17.8449 22.1564Z" fill="#5374E9"/>
<path d="M34.3164 45.3907C28.0762 42.8419 23.2714 37.4512 21.4551 30.9766C21.338 30.5665 21.2208 30.1271 21.1328 29.7168C20.7812 28.1642 20.6055 26.582 20.6055 25C20.6055 24.2969 20.6348 23.6231 20.7226 22.9198C21.1034 18.8769 22.5683 15.0683 25 11.8164L25.4396 11.2598C27.7246 8.38877 30.8007 6.07412 34.3164 4.60928L37.3047 3.37891C36.4843 2.88096 35.6054 2.44141 34.6973 2.06055C34.6973 2.06055 34.0819 1.82627 33.9941 1.79697C32.5293 1.21104 31.1231 0.703125 29.6583 0.439551L29.3945 0.380859L29.1308 0.439551C17.3829 2.66592 8.88672 13.0468 8.88672 25C8.88672 36.9532 17.3829 47.3341 29.1308 49.5605L29.3945 49.6191L29.6583 49.5605C31.1231 49.2969 32.5293 48.7891 33.9941 48.203C34.0819 48.1737 34.1992 48.1152 34.287 48.0859L34.7852 47.8809C35.6641 47.5293 36.5136 47.0898 37.334 46.6211L34.3164 45.3907Z" fill="#6C8DFF"/>
</g>
<defs>
<clipPath id="clip0_7_159">
<rect width="50" height="50" fill="white"/>
</clipPath>
</defs>
</svg>
