<svg width="343" height="178" viewBox="0 0 343 178" fill="none" xmlns="http://www.w3.org/2000/svg">
<g filter="url(#filter0_d_21_395)">
<rect x="50" y="16" width="243" height="78" rx="39" fill="url(#paint0_linear_21_395)"/>
<rect x="50.5" y="16.5" width="242" height="77" rx="38.5" stroke="url(#paint1_linear_21_395)"/>
</g>
<g filter="url(#filter1_d_21_395)">
<path d="M126.52 62.2C125.24 62.2 124.167 62.0133 123.3 61.64C122.447 61.2667 121.8 60.78 121.36 60.18C120.92 59.58 120.687 58.94 120.66 58.26C120.66 58.14 120.7 58.04 120.78 57.96C120.86 57.88 120.96 57.84 121.08 57.84H123.24C123.413 57.84 123.547 57.8733 123.64 57.94C123.733 58.0067 123.82 58.0933 123.9 58.2C123.993 58.44 124.14 58.6667 124.34 58.88C124.553 59.0933 124.833 59.2667 125.18 59.4C125.54 59.5333 125.987 59.6 126.52 59.6C127.387 59.6 128.033 59.46 128.46 59.18C128.9 58.9 129.12 58.52 129.12 58.04C129.12 57.7067 129 57.4333 128.76 57.22C128.533 57.0067 128.167 56.8133 127.66 56.64C127.167 56.4667 126.507 56.2867 125.68 56.1C124.68 55.8733 123.827 55.5933 123.12 55.26C122.427 54.9133 121.9 54.4733 121.54 53.94C121.193 53.3933 121.02 52.72 121.02 51.92C121.02 51.12 121.24 50.4133 121.68 49.8C122.12 49.1733 122.74 48.6867 123.54 48.34C124.34 47.98 125.293 47.8 126.4 47.8C127.293 47.8 128.08 47.92 128.76 48.16C129.453 48.4 130.027 48.7133 130.48 49.1C130.947 49.4867 131.3 49.9 131.54 50.34C131.78 50.78 131.907 51.2067 131.92 51.62C131.92 51.74 131.88 51.8467 131.8 51.94C131.733 52.02 131.633 52.06 131.5 52.06H129.26C129.127 52.06 129.007 52.0333 128.9 51.98C128.793 51.9267 128.7 51.8333 128.62 51.7C128.553 51.34 128.32 51.0333 127.92 50.78C127.533 50.5267 127.027 50.4 126.4 50.4C125.747 50.4 125.227 50.52 124.84 50.76C124.467 50.9867 124.28 51.3467 124.28 51.84C124.28 52.16 124.38 52.4333 124.58 52.66C124.78 52.8733 125.107 53.0667 125.56 53.24C126.013 53.4 126.627 53.5733 127.4 53.76C128.56 54 129.507 54.2933 130.24 54.64C130.973 54.9733 131.513 55.4067 131.86 55.94C132.207 56.46 132.38 57.12 132.38 57.92C132.38 58.8133 132.133 59.58 131.64 60.22C131.147 60.86 130.46 61.3533 129.58 61.7C128.7 62.0333 127.68 62.2 126.52 62.2ZM138.527 62.2C137.754 62.2 137.067 62.0267 136.467 61.68C135.88 61.32 135.42 60.8067 135.087 60.14C134.754 59.46 134.587 58.64 134.587 57.68V52.1C134.587 51.9533 134.634 51.8333 134.727 51.74C134.834 51.6467 134.954 51.6 135.087 51.6H137.227C137.36 51.6 137.474 51.6467 137.567 51.74C137.66 51.8333 137.707 51.9533 137.707 52.1V57.56C137.707 59.0533 138.36 59.8 139.667 59.8C140.294 59.8 140.787 59.6067 141.147 59.22C141.52 58.82 141.707 58.2667 141.707 57.56V52.1C141.707 51.9533 141.754 51.8333 141.847 51.74C141.94 51.6467 142.06 51.6 142.207 51.6H144.327C144.46 51.6 144.574 51.6467 144.667 51.74C144.76 51.8333 144.807 51.9533 144.807 52.1V61.5C144.807 61.6467 144.76 61.7667 144.667 61.86C144.574 61.9533 144.46 62 144.327 62H142.347C142.214 62 142.1 61.9533 142.007 61.86C141.914 61.7667 141.867 61.6467 141.867 61.5V60.72C141.52 61.2 141.074 61.5667 140.527 61.82C139.98 62.0733 139.314 62.2 138.527 62.2ZM153.784 62.2C153.024 62.2 152.384 62.0733 151.864 61.82C151.357 61.5533 150.944 61.22 150.624 60.82V61.5C150.624 61.6467 150.577 61.7667 150.484 61.86C150.391 61.9533 150.271 62 150.124 62H148.224C148.077 62 147.957 61.9533 147.864 61.86C147.771 61.7667 147.724 61.6467 147.724 61.5V48.3C147.724 48.1533 147.771 48.0333 147.864 47.94C147.957 47.8467 148.077 47.8 148.224 47.8H150.284C150.431 47.8 150.551 47.8467 150.644 47.94C150.737 48.0333 150.784 48.1533 150.784 48.3V52.64C151.104 52.28 151.511 51.9867 152.004 51.76C152.497 51.52 153.091 51.4 153.784 51.4C154.464 51.4 155.057 51.52 155.564 51.76C156.084 51.9867 156.524 52.3133 156.884 52.74C157.244 53.1533 157.517 53.6467 157.704 54.22C157.904 54.7933 158.017 55.4267 158.044 56.12C158.057 56.36 158.064 56.5867 158.064 56.8C158.064 57 158.057 57.2267 158.044 57.48C158.017 58.1867 157.904 58.8333 157.704 59.42C157.504 59.9933 157.224 60.4933 156.864 60.92C156.517 61.3333 156.084 61.6533 155.564 61.88C155.057 62.0933 154.464 62.2 153.784 62.2ZM152.864 59.8C153.371 59.8 153.771 59.6933 154.064 59.48C154.357 59.2533 154.564 58.96 154.684 58.6C154.817 58.24 154.897 57.8467 154.924 57.42C154.951 57.0067 154.951 56.5933 154.924 56.18C154.897 55.7533 154.817 55.36 154.684 55C154.564 54.64 154.357 54.3533 154.064 54.14C153.771 53.9133 153.371 53.8 152.864 53.8C152.397 53.8 152.011 53.9067 151.704 54.12C151.397 54.3333 151.171 54.6067 151.024 54.94C150.877 55.26 150.797 55.6067 150.784 55.98C150.771 56.22 150.764 56.4667 150.764 56.72C150.764 56.9733 150.771 57.2267 150.784 57.48C150.797 57.88 150.871 58.2533 151.004 58.6C151.151 58.9467 151.371 59.2333 151.664 59.46C151.971 59.6867 152.371 59.8 152.864 59.8ZM164.665 62.2C163.839 62.2 163.125 62.1067 162.525 61.92C161.939 61.72 161.459 61.48 161.085 61.2C160.725 60.92 160.452 60.64 160.265 60.36C160.092 60.0667 159.999 59.82 159.985 59.62C159.972 59.4733 160.019 59.3533 160.125 59.26C160.232 59.1667 160.339 59.12 160.445 59.12H162.385C162.439 59.12 162.479 59.1267 162.505 59.14C162.545 59.1533 162.592 59.1867 162.645 59.24C162.819 59.36 162.992 59.5 163.165 59.66C163.352 59.8067 163.572 59.9333 163.825 60.04C164.079 60.1467 164.385 60.2 164.745 60.2C165.185 60.2 165.552 60.1133 165.845 59.94C166.152 59.7533 166.305 59.4933 166.305 59.16C166.305 58.92 166.239 58.72 166.105 58.56C165.972 58.4 165.712 58.2533 165.325 58.12C164.939 57.9867 164.365 57.84 163.605 57.68C162.885 57.52 162.272 57.3067 161.765 57.04C161.259 56.7733 160.879 56.44 160.625 56.04C160.372 55.6267 160.245 55.1333 160.245 54.56C160.245 54.04 160.405 53.54 160.725 53.06C161.059 52.58 161.545 52.1867 162.185 51.88C162.825 51.56 163.625 51.4 164.585 51.4C165.319 51.4 165.959 51.4933 166.505 51.68C167.065 51.8533 167.532 52.08 167.905 52.36C168.279 52.6267 168.559 52.9067 168.745 53.2C168.945 53.48 169.052 53.7267 169.065 53.94C169.079 54.0867 169.039 54.2067 168.945 54.3C168.852 54.3933 168.745 54.44 168.625 54.44H166.845C166.779 54.44 166.719 54.4267 166.665 54.4C166.612 54.3733 166.565 54.34 166.525 54.3C166.365 54.2067 166.199 54.0867 166.025 53.94C165.865 53.7933 165.672 53.6667 165.445 53.56C165.219 53.4533 164.925 53.4 164.565 53.4C164.139 53.4 163.805 53.5 163.565 53.7C163.339 53.8867 163.225 54.1267 163.225 54.42C163.225 54.6067 163.285 54.78 163.405 54.94C163.525 55.1 163.765 55.2467 164.125 55.38C164.499 55.5133 165.072 55.6533 165.845 55.8C166.752 55.96 167.472 56.2 168.005 56.52C168.539 56.84 168.919 57.2133 169.145 57.64C169.372 58.0533 169.485 58.5 169.485 58.98C169.485 59.6067 169.299 60.1667 168.925 60.66C168.565 61.14 168.025 61.52 167.305 61.8C166.585 62.0667 165.705 62.2 164.665 62.2ZM176.465 62.2C175.478 62.2 174.612 62.02 173.865 61.66C173.132 61.3 172.552 60.78 172.125 60.1C171.698 59.4067 171.465 58.58 171.425 57.62C171.412 57.4067 171.405 57.14 171.405 56.82C171.405 56.4867 171.412 56.2133 171.425 56C171.465 55.0267 171.692 54.2 172.105 53.52C172.532 52.8267 173.118 52.3 173.865 51.94C174.612 51.58 175.478 51.4 176.465 51.4C177.345 51.4 178.098 51.5267 178.725 51.78C179.352 52.02 179.865 52.3333 180.265 52.72C180.665 53.0933 180.965 53.48 181.165 53.88C181.365 54.28 181.472 54.6333 181.485 54.94C181.498 55.0867 181.452 55.2067 181.345 55.3C181.238 55.3933 181.118 55.44 180.985 55.44H178.845C178.698 55.44 178.585 55.4067 178.505 55.34C178.438 55.2733 178.372 55.1667 178.305 55.02C178.132 54.5533 177.898 54.22 177.605 54.02C177.312 53.82 176.945 53.72 176.505 53.72C175.905 53.72 175.432 53.9133 175.085 54.3C174.752 54.6867 174.572 55.2867 174.545 56.1C174.518 56.62 174.518 57.0933 174.545 57.52C174.572 58.3467 174.752 58.9467 175.085 59.32C175.432 59.6933 175.905 59.88 176.505 59.88C176.972 59.88 177.345 59.78 177.625 59.58C177.905 59.38 178.132 59.0467 178.305 58.58C178.372 58.4333 178.438 58.3267 178.505 58.26C178.585 58.1933 178.698 58.16 178.845 58.16H180.985C181.118 58.16 181.238 58.2067 181.345 58.3C181.452 58.3933 181.498 58.5133 181.485 58.66C181.472 58.8867 181.405 59.1533 181.285 59.46C181.165 59.7667 180.978 60.08 180.725 60.4C180.485 60.72 180.172 61.02 179.785 61.3C179.398 61.5667 178.925 61.7867 178.365 61.96C177.818 62.12 177.185 62.2 176.465 62.2ZM184.306 62C184.173 62 184.053 61.9533 183.946 61.86C183.853 61.7667 183.806 61.6467 183.806 61.5V52.1C183.806 51.9667 183.853 51.8533 183.946 51.76C184.053 51.6533 184.173 51.6 184.306 51.6H186.266C186.413 51.6 186.533 51.6533 186.626 51.76C186.72 51.8533 186.766 51.9667 186.766 52.1V52.9C187.1 52.4867 187.513 52.1667 188.006 51.94C188.5 51.7133 189.06 51.6 189.686 51.6H190.546C190.693 51.6 190.813 51.6467 190.906 51.74C191 51.8333 191.046 51.9533 191.046 52.1V53.84C191.046 53.9733 191 54.0867 190.906 54.18C190.813 54.2733 190.693 54.32 190.546 54.32H188.806C188.206 54.32 187.74 54.4867 187.406 54.82C187.086 55.1533 186.926 55.6133 186.926 56.2V61.5C186.926 61.6467 186.873 61.7667 186.766 61.86C186.673 61.9533 186.56 62 186.426 62H184.306ZM193.417 62C193.284 62 193.164 61.9533 193.057 61.86C192.964 61.7667 192.917 61.6467 192.917 61.5V52.1C192.917 51.9533 192.964 51.8333 193.057 51.74C193.164 51.6467 193.284 51.6 193.417 51.6H195.437C195.571 51.6 195.684 51.6467 195.777 51.74C195.871 51.8333 195.917 51.9533 195.917 52.1V61.5C195.917 61.6467 195.871 61.7667 195.777 61.86C195.684 61.9533 195.571 62 195.437 62H193.417ZM193.357 50C193.224 50 193.111 49.9533 193.017 49.86C192.924 49.7667 192.877 49.6467 192.877 49.5V47.88C192.877 47.7467 192.924 47.6333 193.017 47.54C193.111 47.4333 193.224 47.38 193.357 47.38H195.477C195.611 47.38 195.724 47.4333 195.817 47.54C195.924 47.6333 195.977 47.7467 195.977 47.88V49.5C195.977 49.6467 195.924 49.7667 195.817 49.86C195.724 49.9533 195.611 50 195.477 50H193.357ZM204.905 62.2C204.145 62.2 203.505 62.0733 202.985 61.82C202.478 61.5533 202.065 61.22 201.745 60.82V61.5C201.745 61.6467 201.698 61.7667 201.605 61.86C201.512 61.9533 201.392 62 201.245 62H199.345C199.198 62 199.078 61.9533 198.985 61.86C198.892 61.7667 198.845 61.6467 198.845 61.5V48.3C198.845 48.1533 198.892 48.0333 198.985 47.94C199.078 47.8467 199.198 47.8 199.345 47.8H201.405C201.552 47.8 201.672 47.8467 201.765 47.94C201.858 48.0333 201.905 48.1533 201.905 48.3V52.64C202.225 52.28 202.632 51.9867 203.125 51.76C203.618 51.52 204.212 51.4 204.905 51.4C205.585 51.4 206.178 51.52 206.685 51.76C207.205 51.9867 207.645 52.3133 208.005 52.74C208.365 53.1533 208.638 53.6467 208.825 54.22C209.025 54.7933 209.138 55.4267 209.165 56.12C209.178 56.36 209.185 56.5867 209.185 56.8C209.185 57 209.178 57.2267 209.165 57.48C209.138 58.1867 209.025 58.8333 208.825 59.42C208.625 59.9933 208.345 60.4933 207.985 60.92C207.638 61.3333 207.205 61.6533 206.685 61.88C206.178 62.0933 205.585 62.2 204.905 62.2ZM203.985 59.8C204.492 59.8 204.892 59.6933 205.185 59.48C205.478 59.2533 205.685 58.96 205.805 58.6C205.938 58.24 206.018 57.8467 206.045 57.42C206.072 57.0067 206.072 56.5933 206.045 56.18C206.018 55.7533 205.938 55.36 205.805 55C205.685 54.64 205.478 54.3533 205.185 54.14C204.892 53.9133 204.492 53.8 203.985 53.8C203.518 53.8 203.132 53.9067 202.825 54.12C202.518 54.3333 202.292 54.6067 202.145 54.94C201.998 55.26 201.918 55.6067 201.905 55.98C201.892 56.22 201.885 56.4667 201.885 56.72C201.885 56.9733 201.892 57.2267 201.905 57.48C201.918 57.88 201.992 58.2533 202.125 58.6C202.272 58.9467 202.492 59.2333 202.785 59.46C203.092 59.6867 203.492 59.8 203.985 59.8ZM216.327 62.2C214.793 62.2 213.573 61.7733 212.667 60.92C211.773 60.0667 211.3 58.8267 211.247 57.2C211.247 57.0933 211.247 56.9533 211.247 56.78C211.247 56.5933 211.247 56.4533 211.247 56.36C211.3 55.32 211.533 54.4333 211.947 53.7C212.36 52.9533 212.94 52.3867 213.687 52C214.433 51.6 215.307 51.4 216.307 51.4C217.44 51.4 218.38 51.6333 219.127 52.1C219.873 52.5533 220.433 53.18 220.807 53.98C221.193 54.7667 221.387 55.6733 221.387 56.7V57.16C221.387 57.2933 221.34 57.4133 221.247 57.52C221.153 57.6133 221.033 57.66 220.887 57.66H214.367C214.367 57.66 214.367 57.68 214.367 57.72C214.367 57.7467 214.367 57.7733 214.367 57.8C214.38 58.2267 214.46 58.62 214.607 58.98C214.753 59.3267 214.967 59.6067 215.247 59.82C215.54 60.0333 215.893 60.14 216.307 60.14C216.627 60.14 216.893 60.0933 217.107 60C217.32 59.8933 217.493 59.78 217.627 59.66C217.773 59.5267 217.88 59.4133 217.947 59.32C218.067 59.1733 218.16 59.0867 218.227 59.06C218.307 59.02 218.42 59 218.567 59H220.687C220.807 59 220.907 59.04 220.987 59.12C221.08 59.2 221.12 59.3 221.107 59.42C221.093 59.6467 220.98 59.92 220.767 60.24C220.567 60.5467 220.267 60.8533 219.867 61.16C219.467 61.4533 218.967 61.7 218.367 61.9C217.78 62.1 217.1 62.2 216.327 62.2ZM214.367 55.82H218.267V55.76C218.267 55.2933 218.187 54.8867 218.027 54.54C217.88 54.18 217.66 53.9 217.367 53.7C217.073 53.5 216.72 53.4 216.307 53.4C215.893 53.4 215.54 53.5 215.247 53.7C214.967 53.9 214.747 54.18 214.587 54.54C214.44 54.8867 214.367 55.2933 214.367 55.76V55.82Z" fill="white"/>
</g>
<defs>
<filter id="filter0_d_21_395" x="0" y="0" width="343" height="178" filterUnits="userSpaceOnUse" color-interpolation-filters="sRGB">
<feFlood flood-opacity="0" result="BackgroundImageFix"/>
<feColorMatrix in="SourceAlpha" type="matrix" values="0 0 0 0 0 0 0 0 0 0 0 0 0 0 0 0 0 0 127 0" result="hardAlpha"/>
<feOffset dy="34"/>
<feGaussianBlur stdDeviation="25"/>
<feColorMatrix type="matrix" values="0 0 0 0 0.0273438 0 0 0 0 0.248391 0 0 0 0 0.2625 0 0 0 0.07 0"/>
<feBlend mode="normal" in2="BackgroundImageFix" result="effect1_dropShadow_21_395"/>
<feBlend mode="normal" in="SourceGraphic" in2="effect1_dropShadow_21_395" result="shape"/>
</filter>
<filter id="filter1_d_21_395" x="100.66" y="31.3799" width="140.727" height="54.8201" filterUnits="userSpaceOnUse" color-interpolation-filters="sRGB">
<feFlood flood-opacity="0" result="BackgroundImageFix"/>
<feColorMatrix in="SourceAlpha" type="matrix" values="0 0 0 0 0 0 0 0 0 0 0 0 0 0 0 0 0 0 127 0" result="hardAlpha"/>
<feOffset dy="4"/>
<feGaussianBlur stdDeviation="10"/>
<feColorMatrix type="matrix" values="0 0 0 0 0 0 0 0 0 0 0 0 0 0 0 0 0 0 0.25 0"/>
<feBlend mode="normal" in2="BackgroundImageFix" result="effect1_dropShadow_21_395"/>
<feBlend mode="normal" in="SourceGraphic" in2="effect1_dropShadow_21_395" result="shape"/>
</filter>
<linearGradient id="paint0_linear_21_395" x1="176" y1="100.5" x2="150.611" y2="-29.5099" gradientUnits="userSpaceOnUse">
<stop stop-color="#98AA28"/>
<stop offset="1" stop-color="#D6FF7E"/>
</linearGradient>
<linearGradient id="paint1_linear_21_395" x1="251" y1="104.5" x2="101.5" y2="-10" gradientUnits="userSpaceOnUse">
<stop stop-color="white" stop-opacity="0.69"/>
<stop offset="1" stop-color="white" stop-opacity="0.25"/>
</linearGradient>
</defs>
</svg>
