<svg width="1440" height="482" viewBox="0 0 1440 482" fill="none" xmlns="http://www.w3.org/2000/svg">
<path d="M174.486 175L-182 482H1025L174.486 175Z" fill="#172A21"/>
<path d="M69.0212 266L-182 482H667.914L69.0212 266Z" fill="#12211A"/>
<path d="M1515.4 244L1707 482H1058.29L1515.4 244Z" fill="#0E1F17"/>
<path d="M1572.09 314.547L1707 482H1250.21L1572.09 314.547Z" fill="#09140F"/>
<path d="M1015.5 482L192 181" stroke="url(#paint0_linear_21_1258)" stroke-width="2" stroke-linecap="square"/>
<path d="M-110 327.525V481.991C-70.5065 491.895 -37.8536 500.083 0.330643 509.659L12.5896 431.59L0.330643 353.522L-53.2001 330.413L-110 327.525Z" fill="url(#paint1_linear_21_1258)"/>
<path d="M0.331299 24.5934V329.857L41.4699 353.056L98.403 360.413L110.662 119.989L98.403 49.5655L49.3671 24.9721L0.331299 24.5934Z" fill="#5374E9"/>
<path d="M98.4023 49.5655V340.413L147.438 334.829L196.474 309.857C196.474 306.041 196.474 28.4078 196.474 24.5934L147.438 24.9721L98.4023 49.5655Z" fill="#6C8DFF"/>
<path fill-rule="evenodd" clip-rule="evenodd" d="M73.7912 43.2987C47.1247 36.5086 8.58617 26.6956 0.331299 24.5934L98.4023 0.000162624V0H98.403L196.474 24.5934L171.603 30.9262C144.948 37.7135 106.633 47.4696 98.4031 49.5654L98.403 49.5656C98.4029 49.5656 98.4028 49.5655 98.4027 49.5655C98.4026 49.5655 98.4025 49.5656 98.4023 49.5656V49.5654C94.7802 48.6431 85.4132 46.258 73.7912 43.2987Z" fill="#7CAEF8"/>
<path d="M0.331299 353.522V509.659C12.5012 506.607 86.408 488.073 98.403 485.066L110.662 407.74L98.403 330.414C83.9276 331.121 53.4502 332.609 44.8722 333.028C39.4627 335.516 5.76038 351.024 0.331299 353.522Z" fill="#6BCD49"/>
<path fill-rule="evenodd" clip-rule="evenodd" d="M0.331184 299.859V299.857C29.2771 308.876 39.1364 311.948 46.1247 314.125C55.5408 317.059 59.7448 318.369 98.4029 330.413C90.9178 332.177 58.9089 339.719 33.157 345.787C17.8487 349.394 4.75142 352.48 0.331184 353.522V353.521L0.330643 353.522C-13.115 350.354 -96.5822 330.687 -110 327.525L0.330643 299.857L0.331184 299.859Z" fill="#C9F87C"/>
<path d="M196.474 353.522L208.733 431.59L196.474 509.658C184.61 506.683 110.344 488.059 98.4021 485.065C98.4021 476.477 98.4021 338.999 98.4021 330.413L147.438 332.207L196.474 353.522Z" fill="#F39321"/>
<path d="M306.804 327.525V481.991C267.311 491.895 234.658 500.083 196.474 509.659C196.474 500.98 196.474 362.2 196.474 353.522L251.639 330.413L306.804 327.525Z" fill="#F3A141"/>
<path fill-rule="evenodd" clip-rule="evenodd" d="M196.474 299.857L196.474 299.857C196.477 299.856 196.479 299.856 196.479 299.856C196.479 299.856 196.477 299.856 196.474 299.857L306.804 327.525C293.387 330.687 209.92 350.354 196.474 353.522C196.474 353.522 196.474 353.522 196.474 353.522L147.438 341.968L98.4021 330.414C102.653 329.089 106.721 327.822 110.614 326.609C125.309 322.03 137.503 318.231 147.619 315.08C191.626 301.368 196.305 299.91 196.474 299.858V299.858C196.429 299.872 196.099 299.974 196.474 299.857V299.857L196.474 299.857Z" fill="#F8C67C"/>
<path d="M1493.75 243.819V402.938L1472.31 415.03L1442.63 418.865L1436.24 293.544L1442.63 256.836L1468.19 244.017L1493.75 243.819Z" fill="#5374E9"/>
<path d="M1442.63 256.836V408.44L1417.07 405.529L1391.51 392.513C1391.51 390.523 1391.51 245.808 1391.51 243.819L1417.07 244.017L1442.63 256.836Z" fill="#F3A141"/>
<path fill-rule="evenodd" clip-rule="evenodd" d="M1455.63 253.526C1469.52 249.988 1489.46 244.911 1493.75 243.819L1442.63 231H1442.63L1391.51 243.819L1404.39 247.098C1418.29 250.637 1438.33 255.741 1442.63 256.836L1442.63 256.836C1442.63 256.836 1442.63 256.836 1442.63 256.836C1442.63 256.836 1442.63 256.836 1442.63 256.836V256.836C1444.54 256.351 1449.49 255.088 1455.63 253.526Z" fill="#F8C67C"/>
<path d="M1493.75 415.273V496.659C1487.41 495.068 1448.88 485.408 1442.63 483.84L1436.24 443.534L1442.63 403.228C1450.17 403.596 1466.06 404.372 1470.53 404.59C1473.35 405.887 1490.92 413.971 1493.75 415.273Z" fill="#6BCD49"/>
<path d="M1391.51 415.273L1385.12 455.965L1391.51 496.659C1397.69 495.108 1436.4 485.4 1442.63 483.839C1442.63 479.363 1442.63 407.703 1442.63 403.227L1417.07 404.163L1391.51 415.273Z" fill="#5EBA3F"/>
<path d="M1334 401.722V482.237C1354.59 487.4 1371.61 491.668 1391.51 496.659C1391.51 492.135 1391.51 419.796 1391.51 415.273L1362.75 403.227L1334 401.722Z" fill="#6BCD49"/>
<path fill-rule="evenodd" clip-rule="evenodd" d="M1391.51 387.3L1334 401.722C1340.99 403.37 1384.5 413.621 1391.51 415.273L1391.51 415.273L1391.51 415.273C1391.51 415.273 1391.51 415.273 1391.51 415.273V415.273L1417.07 409.25L1442.63 403.228C1440.41 402.538 1438.29 401.877 1436.27 401.245C1428.61 398.858 1422.25 396.878 1416.97 395.235C1394.05 388.091 1391.6 387.328 1391.51 387.3V387.3C1391.53 387.308 1391.7 387.361 1391.51 387.3V387.3L1391.51 387.3C1391.51 387.3 1391.51 387.3 1391.51 387.3L1391.51 387.3C1391.51 387.3 1391.51 387.299 1391.51 387.299C1391.51 387.299 1391.51 387.3 1391.51 387.3Z" fill="#C9F87C"/>
<path d="M1059.5 482L1391 308.5" stroke="url(#paint2_linear_21_1258)" stroke-width="2" stroke-linecap="square"/>
<defs>
<linearGradient id="paint0_linear_21_1258" x1="-165.5" y1="-99" x2="965" y2="513" gradientUnits="userSpaceOnUse">
<stop stop-color="white" stop-opacity="0.2"/>
<stop offset="1" stop-color="white" stop-opacity="0"/>
</linearGradient>
<linearGradient id="paint1_linear_21_1258" x1="-48.7052" y1="327.525" x2="-48.7052" y2="509.659" gradientUnits="userSpaceOnUse">
<stop stop-color="#89F1FF"/>
<stop offset="1" stop-color="#6292DB"/>
</linearGradient>
<linearGradient id="paint2_linear_21_1258" x1="915.588" y1="147.105" x2="1430.45" y2="341.756" gradientUnits="userSpaceOnUse">
<stop stop-color="white" stop-opacity="0.2"/>
<stop offset="1" stop-color="white" stop-opacity="0"/>
</linearGradient>
</defs>
</svg>
