<svg width="343" height="178" viewBox="0 0 343 178" fill="none" xmlns="http://www.w3.org/2000/svg">
<g filter="url(#filter0_d_2_124)">
<rect x="50" y="16" width="243" height="78" rx="39" fill="url(#paint0_linear_2_124)"/>
<rect x="50.5" y="16.5" width="242" height="77" rx="38.5" stroke="url(#paint1_linear_2_124)"/>
</g>
<g filter="url(#filter1_d_2_124)">
<path d="M119.1 62.2C117.847 62.2 116.773 61.9933 115.88 61.58C115 61.1533 114.313 60.54 113.82 59.74C113.34 58.9267 113.08 57.9467 113.04 56.8C113.027 56.2267 113.02 55.6133 113.02 54.96C113.02 54.3067 113.027 53.6867 113.04 53.1C113.08 51.98 113.34 51.0267 113.82 50.24C114.313 49.4533 115.007 48.8533 115.9 48.44C116.807 48.0133 117.873 47.8 119.1 47.8C120.087 47.8 120.953 47.9267 121.7 48.18C122.447 48.4333 123.073 48.7667 123.58 49.18C124.1 49.58 124.487 50.02 124.74 50.5C125.007 50.98 125.147 51.4467 125.16 51.9C125.16 52.02 125.12 52.12 125.04 52.2C124.96 52.28 124.853 52.32 124.72 52.32H122.24C122.107 52.32 122 52.2933 121.92 52.24C121.853 52.1867 121.793 52.1067 121.74 52C121.647 51.7733 121.493 51.5333 121.28 51.28C121.08 51.0267 120.807 50.82 120.46 50.66C120.113 50.4867 119.66 50.4 119.1 50.4C118.26 50.4 117.593 50.62 117.1 51.06C116.62 51.5 116.36 52.2133 116.32 53.2C116.28 54.3467 116.28 55.5133 116.32 56.7C116.36 57.7267 116.633 58.4667 117.14 58.92C117.647 59.3733 118.313 59.6 119.14 59.6C119.687 59.6 120.173 59.5067 120.6 59.32C121.04 59.12 121.387 58.82 121.64 58.42C121.893 58.0067 122.02 57.48 122.02 56.84V56.34H119.84C119.707 56.34 119.593 56.2933 119.5 56.2C119.407 56.0933 119.36 55.9733 119.36 55.84V54.56C119.36 54.4133 119.407 54.2933 119.5 54.2C119.593 54.1067 119.707 54.06 119.84 54.06H124.76C124.907 54.06 125.027 54.1067 125.12 54.2C125.213 54.2933 125.26 54.4133 125.26 54.56V56.74C125.26 57.8867 125.007 58.8667 124.5 59.68C123.993 60.4933 123.273 61.12 122.34 61.56C121.42 61.9867 120.34 62.2 119.1 62.2ZM132.499 62.2C130.966 62.2 129.746 61.7733 128.839 60.92C127.946 60.0667 127.473 58.8267 127.419 57.2C127.419 57.0933 127.419 56.9533 127.419 56.78C127.419 56.5933 127.419 56.4533 127.419 56.36C127.473 55.32 127.706 54.4333 128.119 53.7C128.533 52.9533 129.113 52.3867 129.859 52C130.606 51.6 131.479 51.4 132.479 51.4C133.613 51.4 134.553 51.6333 135.299 52.1C136.046 52.5533 136.606 53.18 136.979 53.98C137.366 54.7667 137.559 55.6733 137.559 56.7V57.16C137.559 57.2933 137.513 57.4133 137.419 57.52C137.326 57.6133 137.206 57.66 137.059 57.66H130.539C130.539 57.66 130.539 57.68 130.539 57.72C130.539 57.7467 130.539 57.7733 130.539 57.8C130.553 58.2267 130.633 58.62 130.779 58.98C130.926 59.3267 131.139 59.6067 131.419 59.82C131.713 60.0333 132.066 60.14 132.479 60.14C132.799 60.14 133.066 60.0933 133.279 60C133.493 59.8933 133.666 59.78 133.799 59.66C133.946 59.5267 134.053 59.4133 134.119 59.32C134.239 59.1733 134.333 59.0867 134.399 59.06C134.479 59.02 134.593 59 134.739 59H136.859C136.979 59 137.079 59.04 137.159 59.12C137.253 59.2 137.293 59.3 137.279 59.42C137.266 59.6467 137.153 59.92 136.939 60.24C136.739 60.5467 136.439 60.8533 136.039 61.16C135.639 61.4533 135.139 61.7 134.539 61.9C133.953 62.1 133.273 62.2 132.499 62.2ZM130.539 55.82H134.439V55.76C134.439 55.2933 134.359 54.8867 134.199 54.54C134.053 54.18 133.833 53.9 133.539 53.7C133.246 53.5 132.893 53.4 132.479 53.4C132.066 53.4 131.713 53.5 131.419 53.7C131.139 53.9 130.919 54.18 130.759 54.54C130.613 54.8867 130.539 55.2933 130.539 55.76V55.82ZM144.939 62C144.112 62 143.406 61.8667 142.819 61.6C142.246 61.32 141.806 60.8933 141.499 60.32C141.192 59.7467 141.039 59.0267 141.039 58.16V53.96H139.479C139.332 53.96 139.212 53.9133 139.119 53.82C139.026 53.7267 138.979 53.6133 138.979 53.48V52.1C138.979 51.9533 139.026 51.8333 139.119 51.74C139.212 51.6467 139.332 51.6 139.479 51.6H141.039V48.3C141.039 48.1533 141.086 48.0333 141.179 47.94C141.286 47.8467 141.406 47.8 141.539 47.8H143.519C143.652 47.8 143.766 47.8467 143.859 47.94C143.952 48.0333 143.999 48.1533 143.999 48.3V51.6H146.499C146.646 51.6 146.766 51.6467 146.859 51.74C146.952 51.8333 146.999 51.9533 146.999 52.1V53.48C146.999 53.6133 146.952 53.7267 146.859 53.82C146.766 53.9133 146.646 53.96 146.499 53.96H143.999V57.92C143.999 58.4267 144.092 58.8267 144.279 59.12C144.466 59.4 144.779 59.54 145.219 59.54H146.679C146.826 59.54 146.946 59.5867 147.039 59.68C147.132 59.7733 147.179 59.8867 147.179 60.02V61.5C147.179 61.6467 147.132 61.7667 147.039 61.86C146.946 61.9533 146.826 62 146.679 62H144.939ZM159.378 62.2C158.098 62.2 157.024 62.0133 156.158 61.64C155.304 61.2667 154.658 60.78 154.218 60.18C153.778 59.58 153.544 58.94 153.518 58.26C153.518 58.14 153.558 58.04 153.638 57.96C153.718 57.88 153.818 57.84 153.938 57.84H156.098C156.271 57.84 156.404 57.8733 156.498 57.94C156.591 58.0067 156.678 58.0933 156.758 58.2C156.851 58.44 156.998 58.6667 157.198 58.88C157.411 59.0933 157.691 59.2667 158.038 59.4C158.398 59.5333 158.844 59.6 159.378 59.6C160.244 59.6 160.891 59.46 161.318 59.18C161.758 58.9 161.978 58.52 161.978 58.04C161.978 57.7067 161.858 57.4333 161.618 57.22C161.391 57.0067 161.024 56.8133 160.518 56.64C160.024 56.4667 159.364 56.2867 158.538 56.1C157.538 55.8733 156.684 55.5933 155.978 55.26C155.284 54.9133 154.758 54.4733 154.398 53.94C154.051 53.3933 153.878 52.72 153.878 51.92C153.878 51.12 154.098 50.4133 154.538 49.8C154.978 49.1733 155.598 48.6867 156.398 48.34C157.198 47.98 158.151 47.8 159.258 47.8C160.151 47.8 160.938 47.92 161.618 48.16C162.311 48.4 162.884 48.7133 163.338 49.1C163.804 49.4867 164.158 49.9 164.398 50.34C164.638 50.78 164.764 51.2067 164.778 51.62C164.778 51.74 164.738 51.8467 164.658 51.94C164.591 52.02 164.491 52.06 164.358 52.06H162.118C161.984 52.06 161.864 52.0333 161.758 51.98C161.651 51.9267 161.558 51.8333 161.478 51.7C161.411 51.34 161.178 51.0333 160.778 50.78C160.391 50.5267 159.884 50.4 159.258 50.4C158.604 50.4 158.084 50.52 157.698 50.76C157.324 50.9867 157.138 51.3467 157.138 51.84C157.138 52.16 157.238 52.4333 157.438 52.66C157.638 52.8733 157.964 53.0667 158.418 53.24C158.871 53.4 159.484 53.5733 160.258 53.76C161.418 54 162.364 54.2933 163.098 54.64C163.831 54.9733 164.371 55.4067 164.718 55.94C165.064 56.46 165.238 57.12 165.238 57.92C165.238 58.8133 164.991 59.58 164.498 60.22C164.004 60.86 163.318 61.3533 162.438 61.7C161.558 62.0333 160.538 62.2 159.378 62.2ZM172.565 62C171.738 62 171.031 61.8667 170.445 61.6C169.871 61.32 169.431 60.8933 169.125 60.32C168.818 59.7467 168.665 59.0267 168.665 58.16V53.96H167.105C166.958 53.96 166.838 53.9133 166.745 53.82C166.651 53.7267 166.605 53.6133 166.605 53.48V52.1C166.605 51.9533 166.651 51.8333 166.745 51.74C166.838 51.6467 166.958 51.6 167.105 51.6H168.665V48.3C168.665 48.1533 168.711 48.0333 168.805 47.94C168.911 47.8467 169.031 47.8 169.165 47.8H171.145C171.278 47.8 171.391 47.8467 171.485 47.94C171.578 48.0333 171.625 48.1533 171.625 48.3V51.6H174.125C174.271 51.6 174.391 51.6467 174.485 51.74C174.578 51.8333 174.625 51.9533 174.625 52.1V53.48C174.625 53.6133 174.578 53.7267 174.485 53.82C174.391 53.9133 174.271 53.96 174.125 53.96H171.625V57.92C171.625 58.4267 171.718 58.8267 171.905 59.12C172.091 59.4 172.405 59.54 172.845 59.54H174.305C174.451 59.54 174.571 59.5867 174.665 59.68C174.758 59.7733 174.805 59.8867 174.805 60.02V61.5C174.805 61.6467 174.758 61.7667 174.665 61.86C174.571 61.9533 174.451 62 174.305 62H172.565ZM179.99 62.2C179.283 62.2 178.65 62.0667 178.09 61.8C177.53 61.52 177.083 61.1467 176.75 60.68C176.416 60.2133 176.25 59.6933 176.25 59.12C176.25 58.1733 176.63 57.4267 177.39 56.88C178.163 56.3333 179.176 55.96 180.43 55.76L183.05 55.38V55.02C183.05 54.5 182.93 54.1 182.69 53.82C182.45 53.54 182.03 53.4 181.43 53.4C180.99 53.4 180.636 53.4867 180.37 53.66C180.116 53.8333 179.916 54.06 179.77 54.34C179.663 54.5133 179.503 54.6 179.29 54.6H177.39C177.243 54.6 177.13 54.56 177.05 54.48C176.97 54.3867 176.936 54.28 176.95 54.16C176.95 53.9333 177.036 53.6667 177.21 53.36C177.383 53.0533 177.65 52.7533 178.01 52.46C178.37 52.1533 178.83 51.9 179.39 51.7C179.963 51.5 180.65 51.4 181.45 51.4C182.29 51.4 183.01 51.5 183.61 51.7C184.21 51.9 184.69 52.18 185.05 52.54C185.423 52.9 185.69 53.32 185.85 53.8C186.023 54.2667 186.11 54.7733 186.11 55.32V61.5C186.11 61.6467 186.063 61.7667 185.97 61.86C185.876 61.9533 185.763 62 185.63 62H183.65C183.516 62 183.403 61.9533 183.31 61.86C183.216 61.7667 183.17 61.6467 183.17 61.5V60.76C182.996 61.0133 182.763 61.2533 182.47 61.48C182.176 61.6933 181.823 61.8667 181.41 62C181.01 62.1333 180.536 62.2 179.99 62.2ZM180.79 60.12C181.23 60.12 181.623 60.0267 181.97 59.84C182.316 59.6533 182.59 59.3667 182.79 58.98C182.99 58.5933 183.09 58.1067 183.09 57.52V57.18L181.23 57.48C180.523 57.6 180.003 57.78 179.67 58.02C179.336 58.26 179.17 58.5533 179.17 58.9C179.17 59.1533 179.243 59.3733 179.39 59.56C179.55 59.7333 179.75 59.8733 179.99 59.98C180.243 60.0733 180.51 60.12 180.79 60.12ZM189.411 62C189.278 62 189.158 61.9533 189.051 61.86C188.958 61.7667 188.911 61.6467 188.911 61.5V52.1C188.911 51.9667 188.958 51.8533 189.051 51.76C189.158 51.6533 189.278 51.6 189.411 51.6H191.371C191.518 51.6 191.638 51.6533 191.731 51.76C191.824 51.8533 191.871 51.9667 191.871 52.1V52.9C192.204 52.4867 192.618 52.1667 193.111 51.94C193.604 51.7133 194.164 51.6 194.791 51.6H195.651C195.798 51.6 195.918 51.6467 196.011 51.74C196.104 51.8333 196.151 51.9533 196.151 52.1V53.84C196.151 53.9733 196.104 54.0867 196.011 54.18C195.918 54.2733 195.798 54.32 195.651 54.32H193.911C193.311 54.32 192.844 54.4867 192.511 54.82C192.191 55.1533 192.031 55.6133 192.031 56.2V61.5C192.031 61.6467 191.978 61.7667 191.871 61.86C191.778 61.9533 191.664 62 191.531 62H189.411ZM203.042 62C202.215 62 201.509 61.8667 200.922 61.6C200.349 61.32 199.909 60.8933 199.602 60.32C199.295 59.7467 199.142 59.0267 199.142 58.16V53.96H197.582C197.435 53.96 197.315 53.9133 197.222 53.82C197.129 53.7267 197.082 53.6133 197.082 53.48V52.1C197.082 51.9533 197.129 51.8333 197.222 51.74C197.315 51.6467 197.435 51.6 197.582 51.6H199.142V48.3C199.142 48.1533 199.189 48.0333 199.282 47.94C199.389 47.8467 199.509 47.8 199.642 47.8H201.622C201.755 47.8 201.869 47.8467 201.962 47.94C202.055 48.0333 202.102 48.1533 202.102 48.3V51.6H204.602C204.749 51.6 204.869 51.6467 204.962 51.74C205.055 51.8333 205.102 51.9533 205.102 52.1V53.48C205.102 53.6133 205.055 53.7267 204.962 53.82C204.869 53.9133 204.749 53.96 204.602 53.96H202.102V57.92C202.102 58.4267 202.195 58.8267 202.382 59.12C202.569 59.4 202.882 59.54 203.322 59.54H204.782C204.929 59.54 205.049 59.5867 205.142 59.68C205.235 59.7733 205.282 59.8867 205.282 60.02V61.5C205.282 61.6467 205.235 61.7667 205.142 61.86C205.049 61.9533 204.929 62 204.782 62H203.042ZM212.047 62.2C210.514 62.2 209.294 61.7733 208.387 60.92C207.494 60.0667 207.02 58.8267 206.967 57.2C206.967 57.0933 206.967 56.9533 206.967 56.78C206.967 56.5933 206.967 56.4533 206.967 56.36C207.02 55.32 207.254 54.4333 207.667 53.7C208.08 52.9533 208.66 52.3867 209.407 52C210.154 51.6 211.027 51.4 212.027 51.4C213.16 51.4 214.1 51.6333 214.847 52.1C215.594 52.5533 216.154 53.18 216.527 53.98C216.914 54.7667 217.107 55.6733 217.107 56.7V57.16C217.107 57.2933 217.06 57.4133 216.967 57.52C216.874 57.6133 216.754 57.66 216.607 57.66H210.087C210.087 57.66 210.087 57.68 210.087 57.72C210.087 57.7467 210.087 57.7733 210.087 57.8C210.1 58.2267 210.18 58.62 210.327 58.98C210.474 59.3267 210.687 59.6067 210.967 59.82C211.26 60.0333 211.614 60.14 212.027 60.14C212.347 60.14 212.614 60.0933 212.827 60C213.04 59.8933 213.214 59.78 213.347 59.66C213.494 59.5267 213.6 59.4133 213.667 59.32C213.787 59.1733 213.88 59.0867 213.947 59.06C214.027 59.02 214.14 59 214.287 59H216.407C216.527 59 216.627 59.04 216.707 59.12C216.8 59.2 216.84 59.3 216.827 59.42C216.814 59.6467 216.7 59.92 216.487 60.24C216.287 60.5467 215.987 60.8533 215.587 61.16C215.187 61.4533 214.687 61.7 214.087 61.9C213.5 62.1 212.82 62.2 212.047 62.2ZM210.087 55.82H213.987V55.76C213.987 55.2933 213.907 54.8867 213.747 54.54C213.6 54.18 213.38 53.9 213.087 53.7C212.794 53.5 212.44 53.4 212.027 53.4C211.614 53.4 211.26 53.5 210.967 53.7C210.687 53.9 210.467 54.18 210.307 54.54C210.16 54.8867 210.087 55.2933 210.087 55.76V55.82ZM223.386 62.2C222.719 62.2 222.126 62.0933 221.606 61.88C221.086 61.6533 220.646 61.3333 220.286 60.92C219.926 60.4933 219.652 59.9933 219.466 59.42C219.279 58.8333 219.166 58.1867 219.126 57.48C219.112 57.2267 219.106 57 219.106 56.8C219.106 56.5867 219.112 56.36 219.126 56.12C219.152 55.4267 219.259 54.7933 219.446 54.22C219.646 53.6467 219.919 53.1533 220.266 52.74C220.626 52.3133 221.066 51.9867 221.586 51.76C222.119 51.52 222.719 51.4 223.386 51.4C224.079 51.4 224.672 51.52 225.166 51.76C225.659 51.9867 226.066 52.28 226.386 52.64V48.3C226.386 48.1533 226.432 48.0333 226.526 47.94C226.619 47.8467 226.739 47.8 226.886 47.8H228.946C229.092 47.8 229.212 47.8467 229.306 47.94C229.399 48.0333 229.446 48.1533 229.446 48.3V61.5C229.446 61.6467 229.399 61.7667 229.306 61.86C229.212 61.9533 229.092 62 228.946 62H227.026C226.892 62 226.779 61.9533 226.686 61.86C226.592 61.7667 226.546 61.6467 226.546 61.5V60.82C226.212 61.22 225.792 61.5533 225.286 61.82C224.779 62.0733 224.146 62.2 223.386 62.2ZM224.306 59.8C224.799 59.8 225.192 59.6867 225.486 59.46C225.792 59.2333 226.012 58.9467 226.146 58.6C226.292 58.2533 226.372 57.88 226.386 57.48C226.412 57.2267 226.426 56.9733 226.426 56.72C226.426 56.4667 226.412 56.22 226.386 55.98C226.372 55.6067 226.286 55.26 226.126 54.94C225.979 54.6067 225.759 54.3333 225.466 54.12C225.172 53.9067 224.786 53.8 224.306 53.8C223.799 53.8 223.399 53.9133 223.106 54.14C222.812 54.3533 222.599 54.64 222.466 55C222.346 55.36 222.272 55.7533 222.246 56.18C222.219 56.5933 222.219 57.0067 222.246 57.42C222.272 57.8467 222.346 58.24 222.466 58.6C222.599 58.96 222.812 59.2533 223.106 59.48C223.399 59.6933 223.799 59.8 224.306 59.8Z" fill="white"/>
</g>
<defs>
<filter id="filter0_d_2_124" x="0" y="0" width="343" height="178" filterUnits="userSpaceOnUse" color-interpolation-filters="sRGB">
<feFlood flood-opacity="0" result="BackgroundImageFix"/>
<feColorMatrix in="SourceAlpha" type="matrix" values="0 0 0 0 0 0 0 0 0 0 0 0 0 0 0 0 0 0 127 0" result="hardAlpha"/>
<feOffset dy="34"/>
<feGaussianBlur stdDeviation="25"/>
<feColorMatrix type="matrix" values="0 0 0 0 0.0273438 0 0 0 0 0.248391 0 0 0 0 0.2625 0 0 0 0.07 0"/>
<feBlend mode="normal" in2="BackgroundImageFix" result="effect1_dropShadow_2_124"/>
<feBlend mode="normal" in="SourceGraphic" in2="effect1_dropShadow_2_124" result="shape"/>
</filter>
<filter id="filter1_d_2_124" x="93.02" y="31.8" width="156.426" height="54.4" filterUnits="userSpaceOnUse" color-interpolation-filters="sRGB">
<feFlood flood-opacity="0" result="BackgroundImageFix"/>
<feColorMatrix in="SourceAlpha" type="matrix" values="0 0 0 0 0 0 0 0 0 0 0 0 0 0 0 0 0 0 127 0" result="hardAlpha"/>
<feOffset dy="4"/>
<feGaussianBlur stdDeviation="10"/>
<feColorMatrix type="matrix" values="0 0 0 0 0 0 0 0 0 0 0 0 0 0 0 0 0 0 0.25 0"/>
<feBlend mode="normal" in2="BackgroundImageFix" result="effect1_dropShadow_2_124"/>
<feBlend mode="normal" in="SourceGraphic" in2="effect1_dropShadow_2_124" result="shape"/>
</filter>
<linearGradient id="paint0_linear_2_124" x1="176" y1="100.5" x2="150.611" y2="-29.5099" gradientUnits="userSpaceOnUse">
<stop stop-color="#98AA28"/>
<stop offset="1" stop-color="#D6FF7E"/>
</linearGradient>
<linearGradient id="paint1_linear_2_124" x1="251" y1="104.5" x2="101.5" y2="-10" gradientUnits="userSpaceOnUse">
<stop stop-color="white" stop-opacity="0.69"/>
<stop offset="1" stop-color="white" stop-opacity="0.25"/>
</linearGradient>
</defs>
</svg>
