<svg width="128" height="129" viewBox="0 0 128 129" fill="none" xmlns="http://www.w3.org/2000/svg">
<path d="M0.569092 17.5654V111.817C24.6669 117.86 44.5909 122.856 67.8898 128.699L75.3699 81.0633L67.8898 33.428L35.2268 19.3277L0.569092 17.5654Z" fill="#5EBA3F"/>
<path d="M67.8904 33.4277V128.698C75.3161 126.836 120.412 115.527 127.731 113.692V68.626V19.3279C118.899 19.7591 100.302 20.6674 95.068 20.923C91.7673 22.4412 71.2031 31.9036 67.8904 33.4277Z" fill="#6BCD49"/>
<path fill-rule="evenodd" clip-rule="evenodd" d="M67.8898 33.4277C59.6857 31.4949 8.75629 19.4944 0.569092 17.5651L67.8898 0.683105L67.8904 0.684308V0.683323C85.5089 6.17264 91.5385 8.05132 95.8008 9.37934C101.568 11.1764 104.1 11.9651 127.731 19.3276C123.182 20.3997 103.788 24.9695 88.1071 28.6643C78.686 30.8841 70.6055 32.7881 67.8904 33.4279V33.4265L67.8898 33.4277Z" fill="#C9F87C"/>
</svg>
