<svg width="307" height="482" viewBox="0 0 307 482" fill="none" xmlns="http://www.w3.org/2000/svg">
<path d="M-110 327.525V481.991C-70.5065 491.895 -37.8536 500.083 0.330643 509.659L12.5896 431.59L0.330643 353.522L-53.2001 330.413L-110 327.525Z" fill="url(#paint0_linear_2_125)"/>
<path d="M0.331299 24.5934V329.857L41.4699 353.056L98.403 360.413L110.662 119.989L98.403 49.5655L49.3671 24.9721L0.331299 24.5934Z" fill="#5374E9"/>
<path d="M98.4023 49.5655V340.413L147.438 334.829L196.474 309.857C196.474 306.041 196.474 28.4078 196.474 24.5934L147.438 24.9721L98.4023 49.5655Z" fill="#6C8DFF"/>
<path fill-rule="evenodd" clip-rule="evenodd" d="M73.7912 43.2987C47.1247 36.5086 8.58617 26.6956 0.331299 24.5934L98.4023 0.000162624V0H98.403L196.474 24.5934L171.603 30.9262C144.948 37.7135 106.633 47.4696 98.4031 49.5654L98.403 49.5656C98.4029 49.5656 98.4028 49.5655 98.4027 49.5655C98.4026 49.5655 98.4025 49.5656 98.4023 49.5656V49.5654C94.7802 48.6431 85.4132 46.258 73.7912 43.2987Z" fill="#7CAEF8"/>
<path d="M0.331299 353.522V509.659C12.5012 506.607 86.408 488.073 98.403 485.066L110.662 407.74L98.403 330.414C83.9276 331.121 53.4502 332.609 44.8722 333.028C39.4627 335.516 5.76038 351.024 0.331299 353.522Z" fill="#6BCD49"/>
<path fill-rule="evenodd" clip-rule="evenodd" d="M0.331184 299.859V299.857C29.2771 308.876 39.1364 311.948 46.1247 314.125C55.5408 317.059 59.7448 318.369 98.4029 330.413C90.9178 332.177 58.9089 339.719 33.157 345.787C17.8487 349.394 4.75142 352.48 0.331184 353.522V353.521L0.330643 353.522C-13.115 350.354 -96.5822 330.687 -110 327.525L0.330643 299.857L0.331184 299.859Z" fill="#C9F87C"/>
<path d="M196.474 353.522L208.733 431.59L196.474 509.658C184.61 506.683 110.344 488.059 98.4021 485.065C98.4021 476.477 98.4021 338.999 98.4021 330.413L147.438 332.207L196.474 353.522Z" fill="#F39321"/>
<path d="M306.804 327.525V481.991C267.311 491.895 234.658 500.083 196.474 509.659C196.474 500.98 196.474 362.2 196.474 353.522L251.639 330.413L306.804 327.525Z" fill="#F3A141"/>
<path fill-rule="evenodd" clip-rule="evenodd" d="M196.474 299.857L196.474 299.857C196.477 299.856 196.479 299.856 196.479 299.856C196.479 299.856 196.477 299.856 196.474 299.857L306.804 327.525C293.387 330.687 209.92 350.354 196.474 353.522C196.474 353.522 196.474 353.522 196.474 353.522L147.438 341.968L98.4021 330.414C102.653 329.089 106.721 327.822 110.614 326.609C125.309 322.03 137.503 318.231 147.619 315.08C191.626 301.368 196.305 299.91 196.474 299.858V299.858C196.429 299.872 196.099 299.974 196.474 299.857V299.857L196.474 299.857Z" fill="#F8C67C"/>
<defs>
<linearGradient id="paint0_linear_2_125" x1="-48.7052" y1="327.525" x2="-48.7052" y2="509.659" gradientUnits="userSpaceOnUse">
<stop stop-color="#89F1FF"/>
<stop offset="1" stop-color="#6292DB"/>
</linearGradient>
</defs>
</svg>
