<svg width="165" height="202" viewBox="0 0 165 202" fill="none" xmlns="http://www.w3.org/2000/svg">
<path d="M0.314453 129.758V190.579C15.865 194.479 28.722 197.703 43.757 201.473L48.584 170.734L43.757 139.995L22.6793 130.895L0.314453 129.758Z" fill="#5EBA3F"/>
<path d="M43.7573 10.4792V130.677L59.9556 139.811L82.373 142.708L87.1999 48.0411L82.373 20.312L63.0651 10.6284L43.7573 10.4792Z" fill="#5374E9"/>
<path d="M82.3728 20.312V134.833L101.681 132.634L120.988 122.802C120.988 121.299 120.988 11.9812 120.988 10.4792L101.681 10.6284L82.3728 20.312Z" fill="#6C8DFF"/>
<path fill-rule="evenodd" clip-rule="evenodd" d="M82.3728 0.795842V0.795654L82.3732 0.795748L82.3735 0.795677L82.3735 0.79584L120.988 10.4793L111.252 12.9585C100.754 15.6315 85.6208 19.4849 82.3736 20.3119L82.3735 20.3121C82.3733 20.3121 82.3732 20.312 82.3731 20.312C82.373 20.312 82.3729 20.312 82.3728 20.3121V20.3119C80.9568 19.9514 77.3127 19.0235 72.7839 17.8703C62.2805 15.1958 47.0186 11.3097 43.7578 10.4793L82.3728 0.795842Z" fill="#7CAEF8"/>
<path d="M43.7573 139.994V201.473C48.5492 200.272 77.65 192.974 82.373 191.79L87.1999 161.343L82.373 130.896C76.6733 131.174 64.6728 131.76 61.2953 131.925C59.1653 132.905 45.895 139.011 43.7573 139.994Z" fill="#6BCD49"/>
<path fill-rule="evenodd" clip-rule="evenodd" d="M43.757 139.994C38.4628 138.747 5.59772 131.003 0.314453 129.758L43.757 118.864L43.7574 118.865V118.864C55.1532 122.415 59.0358 123.624 61.7874 124.482C65.4958 125.637 67.1499 126.153 82.3731 130.895C79.4316 131.589 66.8713 134.548 56.7417 136.935C50.6887 138.361 45.5036 139.583 43.7574 139.995V139.994L43.757 139.994Z" fill="#C9F87C"/>
<path d="M120.988 139.994L125.815 170.734L120.988 201.473C116.317 200.302 87.0747 192.969 82.3726 191.789C82.3726 188.408 82.3726 134.276 82.3726 130.895L101.68 131.602L120.988 139.994Z" fill="#F39321"/>
<path d="M164.431 129.758V190.579C148.88 194.479 136.023 197.703 120.988 201.473C120.988 198.056 120.988 143.412 120.988 139.995L142.71 130.895L164.431 129.758Z" fill="#F3A141"/>
<path fill-rule="evenodd" clip-rule="evenodd" d="M120.988 118.864L120.988 118.864C120.841 118.91 120.97 118.87 120.988 118.864V118.864C120.922 118.885 119.081 119.459 101.752 124.858C97.7738 126.097 92.9798 127.591 87.2037 129.39C85.6642 129.87 84.0548 130.372 82.3726 130.896L101.68 135.445L120.988 139.994L120.988 139.995C126.282 138.747 159.148 131.003 164.431 129.758L120.988 118.864C120.99 118.864 120.99 118.864 120.99 118.864C120.99 118.864 120.989 118.864 120.988 118.864L120.988 118.864Z" fill="#F8C67C"/>
</svg>
