<svg width="157" height="21" viewBox="0 0 157 21" fill="none" xmlns="http://www.w3.org/2000/svg">
<path d="M1.30034 20.1646C1.11823 20.1646 0.954334 20.1009 0.808647 19.9734C0.68117 19.8459 0.617432 19.682 0.617432 19.4817V6.64296C0.617432 6.44264 0.68117 6.27875 0.808647 6.15127C0.954334 6.02379 1.11823 5.96005 1.30034 5.96005H3.84077C4.04109 5.96005 4.20499 6.02379 4.33246 6.15127C4.45994 6.27875 4.52368 6.44264 4.52368 6.64296V7.57172C4.90611 7.06182 5.41602 6.62475 6.0534 6.26053C6.70899 5.89632 7.48296 5.7051 8.3753 5.68689C10.4696 5.65047 11.9173 6.45175 12.7186 8.09073C13.1375 7.38051 13.7384 6.80686 14.5215 6.3698C15.3046 5.91453 16.1696 5.68689 17.1165 5.68689C18.0635 5.68689 18.9194 5.90542 19.6843 6.34248C20.4492 6.76134 21.0592 7.41693 21.5145 8.30927C21.9698 9.18339 22.1974 10.3125 22.1974 11.6965V19.4817C22.1974 19.682 22.1246 19.8459 21.9789 19.9734C21.8514 20.1009 21.6966 20.1646 21.5145 20.1646H18.8102C18.6098 20.1646 18.4459 20.1009 18.3185 19.9734C18.191 19.8459 18.1273 19.682 18.1273 19.4817V11.915C18.1273 11.1684 18.018 10.5856 17.7995 10.1668C17.5991 9.74793 17.3169 9.44745 16.9527 9.26534C16.6066 9.06502 16.2151 8.96486 15.778 8.96486C15.3956 8.96486 15.0223 9.06502 14.6581 9.26534C14.3121 9.44745 14.0207 9.74793 13.7839 10.1668C13.5654 10.5856 13.4561 11.1684 13.4561 11.915V19.4817C13.4561 19.682 13.3924 19.8459 13.2649 19.9734C13.1375 20.1009 12.9827 20.1646 12.8006 20.1646H10.0962C9.89591 20.1646 9.73201 20.1009 9.60453 19.9734C9.47706 19.8459 9.41332 19.682 9.41332 19.4817V11.915C9.41332 11.1684 9.30405 10.5856 9.08552 10.1668C8.86699 9.74793 8.57562 9.44745 8.2114 9.26534C7.86539 9.06502 7.48296 8.96486 7.06411 8.96486C6.68168 8.96486 6.30835 9.06502 5.94413 9.26534C5.59813 9.44745 5.30675 9.74793 5.07001 10.1668C4.85148 10.5856 4.74221 11.1593 4.74221 11.8877V19.4817C4.74221 19.682 4.67847 19.8459 4.551 19.9734C4.42352 20.1009 4.25962 20.1646 4.0593 20.1646H1.30034Z" fill="#253D32"/>
<path d="M30.206 20.4378C29.2408 20.4378 28.3758 20.2556 27.611 19.8914C26.8461 19.509 26.236 18.9991 25.7808 18.3617C25.3255 17.7243 25.0979 17.0141 25.0979 16.231C25.0979 14.9381 25.6169 13.9182 26.6549 13.1716C27.7111 12.4249 29.0952 11.915 30.807 11.6419L34.3854 11.1229V10.6312C34.3854 9.92093 34.2215 9.37461 33.8937 8.99218C33.5659 8.60975 32.9923 8.41853 32.1728 8.41853C31.5718 8.41853 31.0893 8.5369 30.725 8.77365C30.379 9.01039 30.1059 9.31997 29.9055 9.7024C29.7599 9.93915 29.5413 10.0575 29.2499 10.0575H26.6549C26.4546 10.0575 26.2998 10.0029 26.1905 9.89362C26.0812 9.76614 26.0357 9.62045 26.0539 9.45656C26.0539 9.14697 26.1723 8.78275 26.409 8.3639C26.6458 7.94505 27.01 7.5353 27.5017 7.13466C27.9934 6.71581 28.6217 6.3698 29.3865 6.09663C30.1696 5.82347 31.1075 5.68689 32.2001 5.68689C33.3474 5.68689 34.3308 5.82347 35.1503 6.09663C35.9698 6.3698 36.6254 6.75223 37.1171 7.24393C37.627 7.73562 37.9912 8.30927 38.2097 8.96486C38.4465 9.60224 38.5648 10.2943 38.5648 11.0409V19.4817C38.5648 19.682 38.5011 19.8459 38.3736 19.9734C38.2462 20.1009 38.0914 20.1646 37.9093 20.1646H35.2049C35.0228 20.1646 34.868 20.1009 34.7405 19.9734C34.6131 19.8459 34.5493 19.682 34.5493 19.4817V18.471C34.3126 18.817 33.9939 19.1448 33.5933 19.4544C33.1926 19.7457 32.71 19.9825 32.1455 20.1646C31.5992 20.3467 30.9527 20.4378 30.206 20.4378ZM31.2987 17.5969C31.8996 17.5969 32.4369 17.4694 32.9104 17.2144C33.3838 16.9595 33.7572 16.5679 34.0303 16.0398C34.3035 15.5117 34.4401 14.847 34.4401 14.0457V13.5813L31.8996 13.9911C30.9345 14.155 30.2242 14.4008 29.769 14.7286C29.3137 15.0564 29.0861 15.4571 29.0861 15.9305C29.0861 16.2766 29.1862 16.577 29.3865 16.832C29.6051 17.0687 29.8782 17.2599 30.206 17.4056C30.552 17.5331 30.9163 17.5969 31.2987 17.5969Z" fill="#253D32"/>
<path d="M43.0742 20.1646C42.8921 20.1646 42.7282 20.1009 42.5825 19.9734C42.455 19.8459 42.3913 19.682 42.3913 19.4817V6.64296C42.3913 6.46086 42.455 6.30606 42.5825 6.17859C42.7282 6.0329 42.8921 5.96005 43.0742 5.96005H45.7512C45.9515 5.96005 46.1154 6.0329 46.2429 6.17859C46.3704 6.30606 46.4341 6.46086 46.4341 6.64296V7.73562C46.8894 7.17108 47.4539 6.73402 48.1277 6.42443C48.8015 6.11485 49.5664 5.96005 50.4223 5.96005H51.5969C51.7972 5.96005 51.9611 6.02379 52.0886 6.15127C52.2161 6.27875 52.2798 6.44264 52.2798 6.64296V9.01949C52.2798 9.2016 52.2161 9.3564 52.0886 9.48387C51.9611 9.61135 51.7972 9.67509 51.5969 9.67509H49.2204C48.4009 9.67509 47.7635 9.90272 47.3082 10.358C46.8712 10.8133 46.6526 11.4415 46.6526 12.2428V19.4817C46.6526 19.682 46.5798 19.8459 46.4341 19.9734C46.3066 20.1009 46.1518 20.1646 45.9697 20.1646H43.0742Z" fill="#253D32"/>
<path d="M55.5454 20.1646C55.3451 20.1646 55.1812 20.1009 55.0537 19.9734C54.9262 19.8459 54.8625 19.682 54.8625 19.4817V1.45284C54.8625 1.25252 54.9262 1.08862 55.0537 0.961149C55.1812 0.833671 55.3451 0.769933 55.5454 0.769933H58.2224C58.4045 0.769933 58.5593 0.833671 58.6868 0.961149C58.8325 1.08862 58.9053 1.25252 58.9053 1.45284V10.6858L63.0848 6.42443C63.2304 6.29696 63.3579 6.18769 63.4672 6.09663C63.5947 6.00558 63.7859 5.96005 64.0408 5.96005H67.1549C67.3188 5.96005 67.4554 6.02379 67.5646 6.15127C67.6921 6.26053 67.7559 6.39712 67.7559 6.56101C67.7559 6.63386 67.7376 6.71581 67.7012 6.80686C67.6648 6.89792 67.6011 6.97076 67.51 7.02539L62.2379 12.3248L68.1929 19.1266C68.3386 19.2723 68.4115 19.4179 68.4115 19.5636C68.4115 19.7275 68.3568 19.8732 68.2476 20.0007C68.1383 20.11 67.9926 20.1646 67.8105 20.1646H64.6418C64.3686 20.1646 64.1683 20.1191 64.0408 20.028C63.9316 19.937 63.8041 19.8277 63.6584 19.7002L58.9053 14.3462V19.4817C58.9053 19.682 58.8325 19.8459 58.6868 19.9734C58.5593 20.1009 58.4045 20.1646 58.2224 20.1646H55.5454Z" fill="#253D32"/>
<path d="M76.6049 20.4378C74.5106 20.4378 72.8443 19.855 71.606 18.6895C70.3858 17.524 69.7394 15.8304 69.6665 13.6087C69.6665 13.463 69.6665 13.2718 69.6665 13.035C69.6665 12.7801 69.6665 12.5888 69.6665 12.4614C69.7394 11.0409 70.058 9.82988 70.6226 8.82828C71.1871 7.80847 71.9793 7.0345 72.9991 6.50638C74.0189 5.96005 75.2117 5.68689 76.5776 5.68689C78.1255 5.68689 79.4094 6.00558 80.4292 6.64296C81.449 7.26214 82.2139 8.11805 82.7238 9.21071C83.2519 10.2852 83.5159 11.5235 83.5159 12.9257V13.554C83.5159 13.7361 83.4522 13.9 83.3247 14.0457C83.1973 14.1732 83.0333 14.2369 82.833 14.2369H73.9279C73.9279 14.2369 73.9279 14.2642 73.9279 14.3189C73.9279 14.3553 73.9279 14.3917 73.9279 14.4281C73.9461 15.0109 74.0554 15.5481 74.2557 16.0398C74.456 16.5133 74.7474 16.8957 75.1298 17.1871C75.5304 17.4785 76.013 17.6242 76.5776 17.6242C77.0146 17.6242 77.3788 17.5604 77.6702 17.433C77.9616 17.2873 78.1983 17.1325 78.3805 16.9686C78.5808 16.7865 78.7265 16.6317 78.8175 16.5042C78.9814 16.3039 79.1089 16.1855 79.1999 16.1491C79.3092 16.0944 79.464 16.0671 79.6643 16.0671H82.5599C82.7238 16.0671 82.8603 16.1218 82.9696 16.231C83.0971 16.3403 83.1517 16.4769 83.1335 16.6408C83.1153 16.9504 82.9605 17.3237 82.6691 17.7607C82.396 18.1796 81.9862 18.5985 81.4399 19.0173C80.8936 19.4179 80.2106 19.7548 79.3912 20.028C78.5899 20.3012 77.6611 20.4378 76.6049 20.4378ZM73.9279 11.7238H79.2546V11.6419C79.2546 11.0045 79.1453 10.4491 78.9268 9.97557C78.7265 9.48387 78.426 9.10144 78.0253 8.82828C77.6247 8.55511 77.1421 8.41853 76.5776 8.41853C76.013 8.41853 75.5304 8.55511 75.1298 8.82828C74.7474 9.10144 74.4469 9.48387 74.2284 9.97557C74.028 10.4491 73.9279 11.0045 73.9279 11.6419V11.7238Z" fill="#253D32"/>
<path d="M93.5953 20.1646C92.4662 20.1646 91.501 19.9825 90.6997 19.6183C89.9167 19.2358 89.3157 18.6531 88.8968 17.87C88.478 17.0869 88.2686 16.1036 88.2686 14.9198V9.18339H86.1379C85.9376 9.18339 85.7737 9.11965 85.6462 8.99218C85.5187 8.8647 85.455 8.70991 85.455 8.5278V6.64296C85.455 6.44264 85.5187 6.27875 85.6462 6.15127C85.7737 6.02379 85.9376 5.96005 86.1379 5.96005H88.2686V1.45284C88.2686 1.25252 88.3323 1.08862 88.4598 0.961149C88.6055 0.833671 88.7694 0.769933 88.9515 0.769933H91.6558C91.8379 0.769933 91.9927 0.833671 92.1202 0.961149C92.2477 1.08862 92.3114 1.25252 92.3114 1.45284V5.96005H95.7259C95.9263 5.96005 96.0902 6.02379 96.2176 6.15127C96.3451 6.27875 96.4089 6.44264 96.4089 6.64296V8.5278C96.4089 8.70991 96.3451 8.8647 96.2176 8.99218C96.0902 9.11965 95.9263 9.18339 95.7259 9.18339H92.3114V14.592C92.3114 15.2841 92.4389 15.8304 92.6938 16.231C92.9488 16.6135 93.3767 16.8047 93.9777 16.8047H95.9718C96.1721 16.8047 96.336 16.8684 96.4635 16.9959C96.591 17.1234 96.6547 17.2782 96.6547 17.4603V19.4817C96.6547 19.682 96.591 19.8459 96.4635 19.9734C96.336 20.1009 96.1721 20.1646 95.9718 20.1646H93.5953Z" fill="#253D32"/>
<path d="M100.24 20.1646C100.039 20.1646 99.8756 20.1009 99.7481 19.9734C99.6206 19.8459 99.5569 19.682 99.5569 19.4817V1.45284C99.5569 1.25252 99.6206 1.08862 99.7481 0.961149C99.8756 0.833671 100.039 0.769933 100.24 0.769933H103.19C103.39 0.769933 103.554 0.833671 103.682 0.961149C103.809 1.08862 103.873 1.25252 103.873 1.45284V7.59904C104.346 7.01629 104.938 6.55191 105.648 6.2059C106.377 5.85989 107.242 5.68689 108.243 5.68689C109.318 5.68689 110.265 5.93274 111.084 6.42443C111.922 6.89792 112.569 7.59904 113.024 8.5278C113.497 9.43834 113.734 10.5492 113.734 11.8604V19.4817C113.734 19.682 113.67 19.8459 113.543 19.9734C113.415 20.1009 113.252 20.1646 113.051 20.1646H110.074C109.892 20.1646 109.737 20.1009 109.609 19.9734C109.482 19.8459 109.418 19.682 109.418 19.4817V12.0243C109.418 11.0591 109.181 10.3125 108.708 9.78435C108.234 9.23802 107.561 8.96486 106.686 8.96486C105.831 8.96486 105.148 9.23802 104.638 9.78435C104.128 10.3125 103.873 11.0591 103.873 12.0243V19.4817C103.873 19.682 103.809 19.8459 103.682 19.9734C103.554 20.1009 103.39 20.1646 103.19 20.1646H100.24Z" fill="#253D32"/>
<path d="M118.205 20.1646C118.023 20.1646 117.859 20.1009 117.713 19.9734C117.586 19.8459 117.522 19.682 117.522 19.4817V6.64296C117.522 6.44264 117.586 6.27875 117.713 6.15127C117.859 6.02379 118.023 5.96005 118.205 5.96005H120.964C121.146 5.96005 121.301 6.02379 121.428 6.15127C121.556 6.27875 121.62 6.44264 121.62 6.64296V19.4817C121.62 19.682 121.556 19.8459 121.428 19.9734C121.301 20.1009 121.146 20.1646 120.964 20.1646H118.205ZM118.123 3.77474C117.941 3.77474 117.786 3.711 117.659 3.58352C117.531 3.45605 117.467 3.29215 117.467 3.09183V0.879199C117.467 0.697089 117.531 0.542296 117.659 0.414819C117.786 0.269132 117.941 0.196289 118.123 0.196289H121.019C121.201 0.196289 121.356 0.269132 121.483 0.414819C121.629 0.542296 121.702 0.697089 121.702 0.879199V3.09183C121.702 3.29215 121.629 3.45605 121.483 3.58352C121.356 3.711 121.201 3.77474 121.019 3.77474H118.123Z" fill="#253D32"/>
<path d="M126.274 20.1646C126.092 20.1646 125.928 20.1009 125.782 19.9734C125.655 19.8459 125.591 19.682 125.591 19.4817V6.64296C125.591 6.44264 125.655 6.27875 125.782 6.15127C125.928 6.02379 126.092 5.96005 126.274 5.96005H128.951C129.151 5.96005 129.315 6.02379 129.443 6.15127C129.57 6.27875 129.634 6.44264 129.634 6.64296V7.7083C130.107 7.12555 130.718 6.64296 131.464 6.26053C132.229 5.8781 133.14 5.68689 134.196 5.68689C135.27 5.68689 136.217 5.93274 137.037 6.42443C137.856 6.89792 138.494 7.59904 138.949 8.5278C139.404 9.43834 139.632 10.5492 139.632 11.8604V19.4817C139.632 19.682 139.568 19.8459 139.441 19.9734C139.313 20.1009 139.149 20.1646 138.949 20.1646H136.053C135.853 20.1646 135.689 20.1009 135.562 19.9734C135.434 19.8459 135.37 19.682 135.37 19.4817V12.0243C135.37 11.0591 135.134 10.3125 134.66 9.78435C134.205 9.23802 133.531 8.96486 132.639 8.96486C131.783 8.96486 131.1 9.23802 130.59 9.78435C130.098 10.3125 129.852 11.0591 129.852 12.0243V19.4817C129.852 19.682 129.789 19.8459 129.661 19.9734C129.534 20.1009 129.37 20.1646 129.17 20.1646H126.274Z" fill="#253D32"/>
<path d="M144.134 20.1646C143.934 20.1646 143.77 20.1009 143.642 19.9734C143.515 19.8459 143.451 19.682 143.451 19.4817V1.45284C143.451 1.25252 143.515 1.08862 143.642 0.961149C143.77 0.833671 143.934 0.769933 144.134 0.769933H146.811C146.993 0.769933 147.148 0.833671 147.275 0.961149C147.421 1.08862 147.494 1.25252 147.494 1.45284V10.6858L151.673 6.42443C151.819 6.29696 151.946 6.18769 152.056 6.09663C152.183 6.00558 152.374 5.96005 152.629 5.96005H155.743C155.907 5.96005 156.044 6.02379 156.153 6.15127C156.281 6.26053 156.344 6.39712 156.344 6.56101C156.344 6.63386 156.326 6.71581 156.29 6.80686C156.253 6.89792 156.189 6.97076 156.098 7.02539L150.826 12.3248L156.781 19.1266C156.927 19.2723 157 19.4179 157 19.5636C157 19.7275 156.945 19.8732 156.836 20.0007C156.727 20.11 156.581 20.1646 156.399 20.1646H153.23C152.957 20.1646 152.757 20.1191 152.629 20.028C152.52 19.937 152.393 19.8277 152.247 19.7002L147.494 14.3462V19.4817C147.494 19.682 147.421 19.8459 147.275 19.9734C147.148 20.1009 146.993 20.1646 146.811 20.1646H144.134Z" fill="#253D32"/>
</svg>
