<svg width="209" height="27" viewBox="0 0 209 27" fill="none" xmlns="http://www.w3.org/2000/svg">
<path d="M0.910547 26.6244C0.667735 26.6244 0.449203 26.5394 0.254953 26.3695C0.0849844 26.1995 0 25.981 0 25.7139V8.59557C0 8.32847 0.0849844 8.10994 0.254953 7.93997C0.449203 7.77 0.667735 7.68502 0.910547 7.68502H4.29778C4.56488 7.68502 4.78341 7.77 4.95338 7.93997C5.12335 8.10994 5.20833 8.32847 5.20833 8.59557V9.83391C5.71824 9.15404 6.39811 8.57129 7.24796 8.08566C8.12208 7.60003 9.15404 7.34508 10.3438 7.3208C13.1362 7.27224 15.0665 8.34061 16.1349 10.5259C16.6934 9.57896 17.4946 8.8141 18.5387 8.23135C19.5828 7.62432 20.7362 7.3208 21.9988 7.3208C23.2614 7.3208 24.4027 7.61218 25.4225 8.19493C26.4423 8.7534 27.2557 9.62752 27.8628 10.8173C28.4698 11.9828 28.7733 13.4882 28.7733 15.3336V25.7139C28.7733 25.981 28.6762 26.1995 28.4819 26.3695C28.312 26.5394 28.1056 26.6244 27.8628 26.6244H24.257C23.9899 26.6244 23.7714 26.5394 23.6014 26.3695C23.4314 26.1995 23.3464 25.981 23.3464 25.7139V15.625C23.3464 14.6295 23.2007 13.8525 22.9094 13.294C22.6423 12.7355 22.2659 12.3349 21.7803 12.0921C21.3189 11.825 20.7969 11.6914 20.2142 11.6914C19.7042 11.6914 19.2065 11.825 18.7209 12.0921C18.2595 12.3349 17.871 12.7355 17.5554 13.294C17.264 13.8525 17.1183 14.6295 17.1183 15.625V25.7139C17.1183 25.981 17.0333 26.1995 16.8633 26.3695C16.6934 26.5394 16.487 26.6244 16.2442 26.6244H12.6384C12.3713 26.6244 12.1528 26.5394 11.9828 26.3695C11.8128 26.1995 11.7278 25.981 11.7278 25.7139V15.625C11.7278 14.6295 11.5822 13.8525 11.2908 13.294C10.9994 12.7355 10.6109 12.3349 10.1253 12.0921C9.66394 11.825 9.15404 11.6914 8.59557 11.6914C8.08566 11.6914 7.58789 11.825 7.10227 12.0921C6.64093 12.3349 6.25243 12.7355 5.93677 13.294C5.64539 13.8525 5.49971 14.6173 5.49971 15.5886V25.7139C5.49971 25.981 5.41472 26.1995 5.24475 26.3695C5.07478 26.5394 4.85625 26.6244 4.58916 26.6244H0.910547Z" fill="white"/>
<path d="M39.4515 26.9886C38.1645 26.9886 37.0112 26.7458 35.9914 26.2602C34.9716 25.7503 34.1581 25.0704 33.5511 24.2206C32.9441 23.3707 32.6406 22.4237 32.6406 21.3797C32.6406 19.6557 33.3326 18.2959 34.7166 17.3004C36.1249 16.3049 37.9703 15.625 40.2527 15.2608L45.024 14.5688V13.9132C45.024 12.9662 44.8055 12.2378 44.3684 11.7279C43.9314 11.2179 43.1665 10.963 42.0738 10.963C41.2726 10.963 40.6291 11.1208 40.1435 11.4365C39.6821 11.7521 39.3179 12.1649 39.0508 12.6748C38.8566 12.9905 38.5652 13.1483 38.1767 13.1483H34.7166C34.4495 13.1483 34.2431 13.0755 34.0974 12.9298C33.9518 12.7598 33.891 12.5656 33.9153 12.347C33.9153 11.9342 34.0732 11.4486 34.3888 10.8901C34.7045 10.3317 35.1901 9.78535 35.8457 9.25116C36.5013 8.69269 37.339 8.23135 38.3588 7.86713C39.4029 7.50291 40.6534 7.3208 42.1103 7.3208C43.64 7.3208 44.9512 7.50291 46.0438 7.86713C47.1365 8.23135 48.0106 8.74126 48.6662 9.39685C49.3461 10.0524 49.8317 10.8173 50.1231 11.6914C50.4387 12.5413 50.5966 13.464 50.5966 14.4595V25.7139C50.5966 25.981 50.5116 26.1995 50.3416 26.3695C50.1716 26.5394 49.9652 26.6244 49.7224 26.6244H46.1167C45.8739 26.6244 45.6675 26.5394 45.4975 26.3695C45.3275 26.1995 45.2425 25.981 45.2425 25.7139V24.3663C44.9269 24.8276 44.502 25.2647 43.9678 25.6774C43.4336 26.0659 42.7901 26.3816 42.0374 26.6244C41.309 26.8672 40.447 26.9886 39.4515 26.9886ZM40.9083 23.2007C41.7096 23.2007 42.4259 23.0308 43.0572 22.6908C43.6885 22.3509 44.1863 21.8289 44.5505 21.1247C44.9147 20.4205 45.0969 19.5343 45.0969 18.4659V17.8467L41.7096 18.3931C40.4227 18.6116 39.4757 18.9394 38.8687 19.3764C38.2617 19.8135 37.9582 20.3477 37.9582 20.979C37.9582 21.4404 38.0917 21.841 38.3588 22.1809C38.6502 22.4966 39.0144 22.7515 39.4515 22.9458C39.9128 23.1158 40.3984 23.2007 40.9083 23.2007Z" fill="white"/>
<path d="M56.609 26.6244C56.3662 26.6244 56.1477 26.5394 55.9534 26.3695C55.7835 26.1995 55.6985 25.981 55.6985 25.7139V8.59557C55.6985 8.35275 55.7835 8.14636 55.9534 7.9764C56.1477 7.78214 56.3662 7.68502 56.609 7.68502H60.1784C60.4455 7.68502 60.664 7.78214 60.834 7.9764C61.0039 8.14636 61.0889 8.35275 61.0889 8.59557V10.0524C61.6959 9.29972 62.4487 8.71697 63.3471 8.30419C64.2455 7.89141 65.2653 7.68502 66.4065 7.68502H67.9726C68.2397 7.68502 68.4583 7.77 68.6282 7.93997C68.7982 8.10994 68.8832 8.32847 68.8832 8.59557V11.7643C68.8832 12.0071 68.7982 12.2135 68.6282 12.3834C68.4583 12.5534 68.2397 12.6384 67.9726 12.6384H64.8039C63.7113 12.6384 62.8614 12.9419 62.2544 13.5489C61.6717 14.156 61.3803 14.9937 61.3803 16.0621V25.7139C61.3803 25.981 61.2832 26.1995 61.0889 26.3695C60.9189 26.5394 60.7126 26.6244 60.4697 26.6244H56.609Z" fill="white"/>
<path d="M73.2373 26.6244C72.9702 26.6244 72.7517 26.5394 72.5817 26.3695C72.4118 26.1995 72.3268 25.981 72.3268 25.7139V1.67541C72.3268 1.40831 72.4118 1.18978 72.5817 1.01981C72.7517 0.849843 72.9702 0.764858 73.2373 0.764858H76.8067C77.0495 0.764858 77.2559 0.849843 77.4258 1.01981C77.6201 1.18978 77.7172 1.40831 77.7172 1.67541V13.986L83.2898 8.30419C83.484 8.13422 83.654 7.98853 83.7997 7.86713C83.9696 7.74572 84.2246 7.68502 84.5645 7.68502H88.7166C88.9352 7.68502 89.1173 7.77 89.263 7.93997C89.4329 8.08566 89.5179 8.26777 89.5179 8.4863C89.5179 8.58343 89.4936 8.69269 89.4451 8.8141C89.3965 8.9355 89.3115 9.03263 89.1901 9.10547L82.1607 16.1713L90.1007 25.2404C90.2949 25.4346 90.392 25.6289 90.392 25.8231C90.392 26.0417 90.3192 26.2359 90.1735 26.4059C90.0278 26.5516 89.8336 26.6244 89.5908 26.6244H85.3658C85.0016 26.6244 84.7345 26.5637 84.5645 26.4423C84.4188 26.3209 84.2489 26.1752 84.0546 26.0052L77.7172 18.8665V25.7139C77.7172 25.981 77.6201 26.1995 77.4258 26.3695C77.2559 26.5394 77.0495 26.6244 76.8067 26.6244H73.2373Z" fill="white"/>
<path d="M101.317 26.9886C98.5243 26.9886 96.3025 26.2116 94.6514 24.6576C93.0246 23.1036 92.1626 20.8455 92.0654 17.8832C92.0654 17.6889 92.0654 17.434 92.0654 17.1183C92.0654 16.7784 92.0654 16.5234 92.0654 16.3534C92.1626 14.4595 92.5875 12.8448 93.3402 11.5093C94.0929 10.1496 95.1492 9.11761 96.5089 8.41346C97.8687 7.68502 99.4591 7.3208 101.28 7.3208C103.344 7.3208 105.056 7.74572 106.416 8.59557C107.775 9.42113 108.795 10.5624 109.475 12.0192C110.179 13.4518 110.531 15.1029 110.531 16.9726V17.8103C110.531 18.0531 110.446 18.2717 110.276 18.4659C110.106 18.6359 109.888 18.7209 109.621 18.7209H97.7473C97.7473 18.7209 97.7473 18.7573 97.7473 18.8301C97.7473 18.8787 97.7473 18.9272 97.7473 18.9758C97.7715 19.7528 97.9172 20.4691 98.1843 21.1247C98.4514 21.756 98.8399 22.2659 99.3498 22.6544C99.884 23.0429 100.527 23.2372 101.28 23.2372C101.863 23.2372 102.349 23.1522 102.737 22.9822C103.126 22.788 103.441 22.5816 103.684 22.363C103.951 22.1202 104.145 21.9138 104.267 21.7439C104.485 21.4768 104.655 21.319 104.777 21.2704C104.922 21.1975 105.129 21.1611 105.396 21.1611H109.257C109.475 21.1611 109.657 21.234 109.803 21.3797C109.973 21.5253 110.046 21.7075 110.021 21.926C109.997 22.3388 109.791 22.8365 109.402 23.4193C109.038 23.9777 108.492 24.5362 107.763 25.0947C107.035 25.6289 106.124 26.0781 105.032 26.4423C103.963 26.8065 102.725 26.9886 101.317 26.9886ZM97.7473 15.37H104.85V15.2608C104.85 14.4109 104.704 13.6704 104.412 13.039C104.145 12.3834 103.745 11.8735 103.211 11.5093C102.676 11.1451 102.033 10.963 101.28 10.963C100.527 10.963 99.884 11.1451 99.3498 11.5093C98.8399 11.8735 98.4393 12.3834 98.1479 13.039C97.8808 13.6704 97.7473 14.4109 97.7473 15.2608V15.37Z" fill="white"/>
<path d="M123.97 26.6244C122.465 26.6244 121.178 26.3816 120.11 25.896C119.066 25.3861 118.264 24.6091 117.706 23.565C117.147 22.5209 116.868 21.2097 116.868 19.6314V11.9828H114.027C113.76 11.9828 113.542 11.8978 113.372 11.7279C113.202 11.5579 113.117 11.3515 113.117 11.1087V8.59557C113.117 8.32847 113.202 8.10994 113.372 7.93997C113.542 7.77 113.76 7.68502 114.027 7.68502H116.868V1.67541C116.868 1.40831 116.953 1.18978 117.123 1.01981C117.317 0.849843 117.536 0.764858 117.779 0.764858H121.384C121.627 0.764858 121.834 0.849843 122.004 1.01981C122.174 1.18978 122.259 1.40831 122.259 1.67541V7.68502H126.811C127.078 7.68502 127.297 7.77 127.467 7.93997C127.637 8.10994 127.722 8.32847 127.722 8.59557V11.1087C127.722 11.3515 127.637 11.5579 127.467 11.7279C127.297 11.8978 127.078 11.9828 126.811 11.9828H122.259V19.1943C122.259 20.117 122.429 20.8455 122.769 21.3797C123.108 21.8896 123.679 22.1445 124.48 22.1445H127.139C127.406 22.1445 127.625 22.2295 127.795 22.3995C127.965 22.5694 128.05 22.7758 128.05 23.0186V25.7139C128.05 25.981 127.965 26.1995 127.795 26.3695C127.625 26.5394 127.406 26.6244 127.139 26.6244H123.97Z" fill="white"/>
<path d="M132.83 26.6244C132.563 26.6244 132.344 26.5394 132.174 26.3695C132.004 26.1995 131.919 25.981 131.919 25.7139V1.67541C131.919 1.40831 132.004 1.18978 132.174 1.01981C132.344 0.849843 132.563 0.764858 132.83 0.764858H136.763C137.03 0.764858 137.249 0.849843 137.419 1.01981C137.589 1.18978 137.674 1.40831 137.674 1.67541V9.87033C138.305 9.09333 139.094 8.47416 140.041 8.01282C141.013 7.55147 142.166 7.3208 143.501 7.3208C144.934 7.3208 146.197 7.6486 147.289 8.30419C148.406 8.9355 149.268 9.87033 149.875 11.1087C150.507 12.3227 150.822 13.8039 150.822 15.5521V25.7139C150.822 25.981 150.737 26.1995 150.567 26.3695C150.397 26.5394 150.179 26.6244 149.912 26.6244H145.942C145.699 26.6244 145.492 26.5394 145.323 26.3695C145.153 26.1995 145.068 25.981 145.068 25.7139V15.7707C145.068 14.4838 144.752 13.4882 144.121 12.7841C143.489 12.0556 142.591 11.6914 141.425 11.6914C140.284 11.6914 139.374 12.0556 138.694 12.7841C138.014 13.4882 137.674 14.4838 137.674 15.7707V25.7139C137.674 25.981 137.589 26.1995 137.419 26.3695C137.249 26.5394 137.03 26.6244 136.763 26.6244H132.83Z" fill="white"/>
<path d="M156.783 26.6244C156.541 26.6244 156.322 26.5394 156.128 26.3695C155.958 26.1995 155.873 25.981 155.873 25.7139V8.59557C155.873 8.32847 155.958 8.10994 156.128 7.93997C156.322 7.77 156.541 7.68502 156.783 7.68502H160.462C160.705 7.68502 160.911 7.77 161.081 7.93997C161.251 8.10994 161.336 8.32847 161.336 8.59557V25.7139C161.336 25.981 161.251 26.1995 161.081 26.3695C160.911 26.5394 160.705 26.6244 160.462 26.6244H156.783ZM156.674 4.77127C156.431 4.77127 156.225 4.68628 156.055 4.51631C155.885 4.34634 155.8 4.12781 155.8 3.86072V0.910546C155.8 0.667734 155.885 0.461343 156.055 0.291373C156.225 0.0971244 156.431 0 156.674 0H160.535C160.778 0 160.984 0.0971244 161.154 0.291373C161.348 0.461343 161.445 0.667734 161.445 0.910546V3.86072C161.445 4.12781 161.348 4.34634 161.154 4.51631C160.984 4.68628 160.778 4.77127 160.535 4.77127H156.674Z" fill="white"/>
<path d="M167.542 26.6244C167.299 26.6244 167.081 26.5394 166.887 26.3695C166.717 26.1995 166.632 25.981 166.632 25.7139V8.59557C166.632 8.32847 166.717 8.10994 166.887 7.93997C167.081 7.77 167.299 7.68502 167.542 7.68502H171.111C171.379 7.68502 171.597 7.77 171.767 7.93997C171.937 8.10994 172.022 8.32847 172.022 8.59557V10.016C172.653 9.23902 173.467 8.59557 174.462 8.08566C175.482 7.57575 176.696 7.3208 178.104 7.3208C179.537 7.3208 180.8 7.6486 181.892 8.30419C182.985 8.9355 183.835 9.87033 184.442 11.1087C185.049 12.3227 185.352 13.8039 185.352 15.5521V25.7139C185.352 25.981 185.267 26.1995 185.098 26.3695C184.928 26.5394 184.709 26.6244 184.442 26.6244H180.581C180.314 26.6244 180.096 26.5394 179.926 26.3695C179.756 26.1995 179.671 25.981 179.671 25.7139V15.7707C179.671 14.4838 179.355 13.4882 178.724 12.7841C178.117 12.0556 177.218 11.6914 176.028 11.6914C174.887 11.6914 173.977 12.0556 173.297 12.7841C172.641 13.4882 172.313 14.4838 172.313 15.7707V25.7139C172.313 25.981 172.228 26.1995 172.058 26.3695C171.888 26.5394 171.67 26.6244 171.403 26.6244H167.542Z" fill="white"/>
<path d="M191.355 26.6244C191.088 26.6244 190.87 26.5394 190.7 26.3695C190.53 26.1995 190.445 25.981 190.445 25.7139V1.67541C190.445 1.40831 190.53 1.18978 190.7 1.01981C190.87 0.849843 191.088 0.764858 191.355 0.764858H194.925C195.167 0.764858 195.374 0.849843 195.544 1.01981C195.738 1.18978 195.835 1.40831 195.835 1.67541V13.986L201.408 8.30419C201.602 8.13422 201.772 7.98853 201.918 7.86713C202.088 7.74572 202.342 7.68502 202.682 7.68502H206.835C207.053 7.68502 207.235 7.77 207.381 7.93997C207.551 8.08566 207.636 8.26777 207.636 8.4863C207.636 8.58343 207.612 8.69269 207.563 8.8141C207.514 8.9355 207.429 9.03263 207.308 9.10547L200.279 16.1713L208.219 25.2404C208.413 25.4346 208.51 25.6289 208.51 25.8231C208.51 26.0417 208.437 26.2359 208.291 26.4059C208.146 26.5516 207.951 26.6244 207.709 26.6244H203.484C203.119 26.6244 202.852 26.5637 202.682 26.4423C202.537 26.3209 202.367 26.1752 202.173 26.0052L195.835 18.8665V25.7139C195.835 25.981 195.738 26.1995 195.544 26.3695C195.374 26.5394 195.167 26.6244 194.925 26.6244H191.355Z" fill="white"/>
</svg>
