<svg width="32" height="32" viewBox="0 0 32 32" fill="none" xmlns="http://www.w3.org/2000/svg">
<path d="M22.3257 28.8922C25.9523 28.8922 28.8922 25.9523 28.8922 22.3257C28.8922 18.6992 25.9523 15.7593 22.3257 15.7593C18.6992 15.7593 15.7593 18.6992 15.7593 22.3257C15.7593 25.9523 18.6992 28.8922 22.3257 28.8922Z" fill="#EDFF81"/>
<path d="M24.2957 11.8195C26.8343 11.8195 28.8922 9.76156 28.8922 7.22298C28.8922 4.68439 26.8343 2.62646 24.2957 2.62646C21.7571 2.62646 19.6992 4.68439 19.6992 7.22298C19.6992 9.76156 21.7571 11.8195 24.2957 11.8195Z" fill="#253D32"/>
<path d="M7.26253 28.8529C9.80111 28.8529 11.859 26.795 11.859 24.2564C11.859 21.7178 9.80111 19.6599 7.26253 19.6599C4.72394 19.6599 2.66602 21.7178 2.66602 24.2564C2.66602 26.795 4.72394 28.8529 7.26253 28.8529Z" fill="#253D32"/>
<path d="M9.19291 15.7594C12.8195 15.7594 15.7594 12.8195 15.7594 9.19291C15.7594 5.56636 12.8195 2.62646 9.19291 2.62646C5.56636 2.62646 2.62646 5.56636 2.62646 9.19291C2.62646 12.8195 5.56636 15.7594 9.19291 15.7594Z" fill="#EDFF81"/>
</svg>
