<svg width="106" height="251" viewBox="0 0 106 251" fill="none" xmlns="http://www.w3.org/2000/svg">
<path d="M159.749 12.8192V171.938L138.306 184.03L108.629 187.865L102.239 62.544L108.629 25.836L134.189 13.0167L159.749 12.8192Z" fill="#5374E9"/>
<path d="M108.629 25.836V177.44L83.0695 174.529L57.5097 161.513C57.5097 159.523 57.5097 14.8075 57.5097 12.8192L83.0695 13.0167L108.629 25.836Z" fill="#F3A141"/>
<path fill-rule="evenodd" clip-rule="evenodd" d="M121.63 22.5257C135.523 18.9881 155.464 13.9105 159.749 12.8193L108.63 0H108.629L57.5098 12.8193L70.3874 16.0983C84.2852 19.6371 104.331 24.7413 108.629 25.8359L108.629 25.836C108.629 25.836 108.629 25.836 108.629 25.836C108.629 25.836 108.629 25.836 108.63 25.836V25.8359C110.535 25.3507 115.492 24.0884 121.63 22.5257Z" fill="#F8C67C"/>
<path d="M159.749 184.273V265.659C153.405 264.068 114.882 254.408 108.629 252.84L102.239 212.534L108.629 172.228C116.175 172.596 132.061 173.372 136.532 173.59C139.352 174.887 156.919 182.971 159.749 184.273Z" fill="#6BCD49"/>
<path d="M57.5097 184.273L51.1197 224.965L57.5097 265.659C63.6935 264.108 102.405 254.4 108.629 252.839C108.629 248.363 108.629 176.703 108.629 172.227L83.0695 173.163L57.5097 184.273Z" fill="#5EBA3F"/>
<path d="M7.24792e-05 170.722V251.237C20.586 256.4 37.6063 260.668 57.5098 265.659C57.5098 261.135 57.5098 188.796 57.5098 184.273L28.7549 172.227L7.24792e-05 170.722Z" fill="#6BCD49"/>
<path fill-rule="evenodd" clip-rule="evenodd" d="M57.5095 156.3L0.000167847 170.722C6.99413 172.37 50.5006 182.621 57.5097 184.273L57.5097 184.273L57.5098 184.273C57.5098 184.273 57.5098 184.273 57.5099 184.273V184.273L83.0695 178.25L108.629 172.228C106.414 171.538 104.295 170.877 102.266 170.245C94.6054 167.858 88.2486 165.878 82.975 164.235C60.0474 157.091 57.5999 156.328 57.5099 156.3V156.3C57.5339 156.308 57.7044 156.361 57.5099 156.3V156.3L57.5098 156.3C57.5097 156.3 57.5097 156.3 57.5097 156.3L57.5095 156.3C57.508 156.3 57.5071 156.299 57.5071 156.299C57.5071 156.299 57.5079 156.3 57.5095 156.3Z" fill="#C9F87C"/>
</svg>
