<svg width="402" height="491" viewBox="0 0 402 491" fill="none" xmlns="http://www.w3.org/2000/svg">
<path d="M401.805 315.534V464.345C363.757 473.886 332.3 481.775 295.513 491L283.703 415.789L295.513 340.579L347.084 318.316L401.805 315.534Z" fill="#5EBA3F"/>
<path d="M295.513 23.6929V317.781L255.88 340.13L201.031 347.218L189.221 115.596L201.031 47.7508L248.272 24.0577L295.513 23.6929Z" fill="#5374E9"/>
<path d="M201.032 47.7508V327.95L153.792 322.571L106.551 298.513C106.551 294.837 106.551 27.3677 106.551 23.6929L153.792 24.0577L201.032 47.7508Z" fill="#6C8DFF"/>
<path fill-rule="evenodd" clip-rule="evenodd" d="M224.891 41.6754C250.576 35.1354 287.575 25.7143 295.512 23.693L201.032 0.00033864V0L201.032 0.00016932L201.031 0L201.031 0.000386596L106.551 23.693L130.108 29.6915C155.802 36.2339 193.059 45.7205 201.031 47.7506L201.031 47.751C201.031 47.7509 201.031 47.7509 201.032 47.7508C201.032 47.7509 201.032 47.7509 201.032 47.751V47.7506C204.538 46.858 213.626 44.5438 224.891 41.6754Z" fill="#7CAEF8"/>
<path d="M295.513 340.579V491C283.788 488.06 212.587 470.205 201.031 467.307L189.221 392.812L201.031 318.317C214.977 318.998 244.339 320.432 252.602 320.836C257.814 323.233 290.282 338.173 295.513 340.579Z" fill="#6BCD49"/>
<path fill-rule="evenodd" clip-rule="evenodd" d="M295.513 288.881V288.879C267.692 297.548 258.173 300.513 251.443 302.61C242.339 305.447 238.339 306.693 201.032 318.316C208.218 320.01 238.869 327.232 263.634 333.068C278.491 336.568 291.23 339.57 295.513 340.579L295.513 340.58C308.467 337.528 388.878 318.581 401.805 315.535L295.513 288.88L295.513 288.881Z" fill="#C9F87C"/>
<path d="M106.551 340.579L94.7409 415.789L106.551 490.999C117.98 488.133 189.528 470.191 201.032 467.306C201.032 459.033 201.032 326.588 201.032 318.316L153.792 320.045L106.551 340.579Z" fill="#F39321"/>
<path d="M0.259903 315.534V464.345C38.3075 473.886 69.765 481.775 106.551 491C106.551 482.639 106.551 348.94 106.551 340.579L53.4056 318.316L0.259903 315.534Z" fill="#F3A141"/>
<path fill-rule="evenodd" clip-rule="evenodd" d="M106.551 288.879L106.551 288.879C106.911 288.992 106.595 288.893 106.551 288.879V288.879C106.716 288.931 111.235 290.339 153.617 303.544C163.358 306.579 175.098 310.237 189.246 314.645C193.003 315.815 196.929 317.038 201.032 318.317L153.792 329.448L106.551 340.579V340.579C93.5979 337.528 13.1865 318.58 0.259918 315.534L106.551 288.88L106.551 288.879C106.548 288.878 106.546 288.878 106.546 288.878C106.546 288.878 106.548 288.878 106.551 288.879ZM106.551 288.879C106.551 288.879 106.551 288.879 106.551 288.879L106.551 288.879C106.551 288.879 106.551 288.879 106.551 288.879L106.551 288.879Z" fill="#F8C67C"/>
</svg>
