<svg width="472" height="178" viewBox="0 0 472 178" fill="none" xmlns="http://www.w3.org/2000/svg">
<g filter="url(#filter0_d_21_381)">
<rect x="50" y="16" width="372" height="78" rx="39" fill="url(#paint0_linear_21_381)"/>
<rect x="50.5" y="16.5" width="371" height="77" rx="38.5" stroke="url(#paint1_linear_21_381)"/>
</g>
<path d="M95.148 61C95.028 61 94.926 60.958 94.842 60.874C94.758 60.79 94.716 60.688 94.716 60.568V56.5L90.468 48.976C90.456 48.952 90.444 48.922 90.432 48.886C90.42 48.85 90.414 48.814 90.414 48.778C90.414 48.67 90.45 48.58 90.522 48.508C90.594 48.436 90.678 48.4 90.774 48.4H92.376C92.52 48.4 92.634 48.436 92.718 48.508C92.814 48.58 92.88 48.658 92.916 48.742L95.976 53.98L99.018 48.742C99.066 48.658 99.132 48.58 99.216 48.508C99.312 48.436 99.432 48.4 99.576 48.4H101.16C101.268 48.4 101.358 48.436 101.43 48.508C101.502 48.58 101.538 48.67 101.538 48.778C101.538 48.814 101.532 48.85 101.52 48.886C101.52 48.922 101.508 48.952 101.484 48.976L97.236 56.5V60.568C97.236 60.688 97.194 60.79 97.11 60.874C97.026 60.958 96.918 61 96.786 61H95.148ZM106.094 61.18C105.134 61.18 104.324 61.012 103.664 60.676C103.016 60.34 102.518 59.866 102.17 59.254C101.834 58.642 101.642 57.928 101.594 57.112C101.582 56.896 101.576 56.632 101.576 56.32C101.576 56.008 101.582 55.744 101.594 55.528C101.642 54.7 101.84 53.986 102.188 53.386C102.548 52.774 103.052 52.3 103.7 51.964C104.36 51.628 105.158 51.46 106.094 51.46C107.03 51.46 107.822 51.628 108.47 51.964C109.13 52.3 109.634 52.774 109.982 53.386C110.342 53.986 110.546 54.7 110.594 55.528C110.606 55.744 110.612 56.008 110.612 56.32C110.612 56.632 110.606 56.896 110.594 57.112C110.546 57.928 110.348 58.642 110 59.254C109.664 59.866 109.166 60.34 108.506 60.676C107.858 61.012 107.054 61.18 106.094 61.18ZM106.094 59.398C106.73 59.398 107.222 59.2 107.57 58.804C107.918 58.396 108.11 57.802 108.146 57.022C108.158 56.842 108.164 56.608 108.164 56.32C108.164 56.032 108.158 55.798 108.146 55.618C108.11 54.838 107.918 54.25 107.57 53.854C107.222 53.446 106.73 53.242 106.094 53.242C105.458 53.242 104.966 53.446 104.618 53.854C104.27 54.25 104.078 54.838 104.042 55.618C104.03 55.798 104.024 56.032 104.024 56.32C104.024 56.608 104.03 56.842 104.042 57.022C104.078 57.802 104.27 58.396 104.618 58.804C104.966 59.2 105.458 59.398 106.094 59.398ZM116.441 61.18C115.709 61.18 115.073 61.018 114.533 60.694C114.005 60.358 113.597 59.89 113.309 59.29C113.021 58.678 112.877 57.958 112.877 57.13V52.072C112.877 51.952 112.919 51.85 113.003 51.766C113.087 51.682 113.189 51.64 113.309 51.64H114.893C115.025 51.64 115.127 51.682 115.199 51.766C115.283 51.85 115.325 51.952 115.325 52.072V57.022C115.325 58.51 115.979 59.254 117.287 59.254C117.911 59.254 118.403 59.056 118.763 58.66C119.135 58.264 119.321 57.718 119.321 57.022V52.072C119.321 51.952 119.363 51.85 119.447 51.766C119.531 51.682 119.633 51.64 119.753 51.64H121.337C121.457 51.64 121.559 51.682 121.643 51.766C121.727 51.85 121.769 51.952 121.769 52.072V60.568C121.769 60.688 121.727 60.79 121.643 60.874C121.559 60.958 121.457 61 121.337 61H119.879C119.747 61 119.639 60.958 119.555 60.874C119.483 60.79 119.447 60.688 119.447 60.568V59.83C119.123 60.25 118.721 60.58 118.241 60.82C117.761 61.06 117.161 61.18 116.441 61.18ZM124.938 61C124.818 61 124.716 60.958 124.632 60.874C124.548 60.79 124.506 60.688 124.506 60.568V52.09C124.506 51.958 124.548 51.85 124.632 51.766C124.716 51.682 124.818 51.64 124.938 51.64H126.396C126.516 51.64 126.618 51.682 126.702 51.766C126.798 51.85 126.846 51.958 126.846 52.09V52.828C127.122 52.444 127.476 52.15 127.908 51.946C128.352 51.742 128.862 51.64 129.438 51.64H130.176C130.308 51.64 130.41 51.682 130.482 51.766C130.566 51.85 130.608 51.952 130.608 52.072V53.368C130.608 53.488 130.566 53.59 130.482 53.674C130.41 53.758 130.308 53.8 130.176 53.8H128.772C128.196 53.8 127.746 53.962 127.422 54.286C127.11 54.598 126.954 55.042 126.954 55.618V60.568C126.954 60.688 126.912 60.79 126.828 60.874C126.744 60.958 126.636 61 126.504 61H124.938ZM140.491 61.18C139.159 61.18 138.103 60.796 137.323 60.028C136.543 59.26 136.123 58.168 136.063 56.752C136.051 56.632 136.045 56.482 136.045 56.302C136.045 56.11 136.051 55.96 136.063 55.852C136.111 54.94 136.315 54.16 136.675 53.512C137.047 52.852 137.557 52.348 138.205 52C138.853 51.64 139.615 51.46 140.491 51.46C141.463 51.46 142.279 51.664 142.939 52.072C143.599 52.468 144.097 53.026 144.433 53.746C144.769 54.454 144.937 55.276 144.937 56.212V56.59C144.937 56.71 144.895 56.812 144.811 56.896C144.727 56.98 144.619 57.022 144.487 57.022H138.511C138.511 57.022 138.511 57.04 138.511 57.076C138.511 57.112 138.511 57.142 138.511 57.166C138.523 57.586 138.601 57.976 138.745 58.336C138.901 58.684 139.123 58.966 139.411 59.182C139.711 59.398 140.065 59.506 140.473 59.506C140.809 59.506 141.091 59.458 141.319 59.362C141.547 59.254 141.733 59.134 141.877 59.002C142.021 58.87 142.123 58.762 142.183 58.678C142.291 58.534 142.375 58.45 142.435 58.426C142.507 58.39 142.609 58.372 142.741 58.372H144.289C144.409 58.372 144.505 58.408 144.577 58.48C144.661 58.552 144.697 58.642 144.685 58.75C144.673 58.942 144.571 59.176 144.379 59.452C144.199 59.728 143.935 59.998 143.587 60.262C143.239 60.526 142.801 60.748 142.273 60.928C141.757 61.096 141.163 61.18 140.491 61.18ZM138.511 55.51H142.489V55.456C142.489 54.988 142.411 54.58 142.255 54.232C142.099 53.872 141.871 53.596 141.571 53.404C141.271 53.2 140.911 53.098 140.491 53.098C140.071 53.098 139.711 53.2 139.411 53.404C139.111 53.596 138.883 53.872 138.727 54.232C138.583 54.58 138.511 54.988 138.511 55.456V55.51ZM147.639 61C147.519 61 147.417 60.958 147.333 60.874C147.249 60.79 147.207 60.688 147.207 60.568V52.072C147.207 51.952 147.249 51.85 147.333 51.766C147.417 51.682 147.519 51.64 147.639 51.64H149.043C149.163 51.64 149.265 51.682 149.349 51.766C149.433 51.85 149.475 51.952 149.475 52.072V52.684C149.727 52.348 150.063 52.066 150.483 51.838C150.915 51.598 151.425 51.472 152.013 51.46C153.381 51.436 154.335 51.97 154.875 53.062C155.151 52.582 155.547 52.198 156.063 51.91C156.591 51.61 157.173 51.46 157.809 51.46C158.433 51.46 158.997 51.604 159.501 51.892C160.017 52.18 160.419 52.618 160.707 53.206C161.007 53.782 161.157 54.514 161.157 55.402V60.568C161.157 60.688 161.115 60.79 161.031 60.874C160.947 60.958 160.845 61 160.725 61H159.249C159.129 61 159.027 60.958 158.943 60.874C158.859 60.79 158.817 60.688 158.817 60.568V55.546C158.817 55.006 158.739 54.58 158.583 54.268C158.427 53.944 158.217 53.716 157.953 53.584C157.689 53.452 157.395 53.386 157.071 53.386C156.807 53.386 156.543 53.452 156.279 53.584C156.015 53.716 155.799 53.944 155.631 54.268C155.463 54.58 155.379 55.006 155.379 55.546V60.568C155.379 60.688 155.337 60.79 155.253 60.874C155.169 60.958 155.067 61 154.947 61H153.471C153.351 61 153.249 60.958 153.165 60.874C153.081 60.79 153.039 60.688 153.039 60.568V55.546C153.039 55.006 152.955 54.58 152.787 54.268C152.619 53.944 152.403 53.716 152.139 53.584C151.875 53.452 151.593 53.386 151.293 53.386C151.017 53.386 150.747 53.458 150.483 53.602C150.219 53.734 150.003 53.956 149.835 54.268C149.667 54.58 149.583 55.006 149.583 55.546V60.568C149.583 60.688 149.541 60.79 149.457 60.874C149.373 60.958 149.271 61 149.151 61H147.639ZM166.528 61.18C165.904 61.18 165.34 61.06 164.836 60.82C164.332 60.568 163.93 60.238 163.63 59.83C163.342 59.41 163.198 58.942 163.198 58.426C163.198 57.586 163.54 56.92 164.224 56.428C164.908 55.924 165.802 55.588 166.906 55.42L169.372 55.06V54.682C169.372 54.178 169.246 53.788 168.994 53.512C168.742 53.236 168.31 53.098 167.698 53.098C167.266 53.098 166.912 53.188 166.636 53.368C166.372 53.536 166.174 53.764 166.042 54.052C165.946 54.208 165.808 54.286 165.628 54.286H164.206C164.074 54.286 163.972 54.25 163.9 54.178C163.84 54.106 163.81 54.01 163.81 53.89C163.822 53.698 163.9 53.464 164.044 53.188C164.2 52.912 164.428 52.648 164.728 52.396C165.04 52.132 165.442 51.91 165.934 51.73C166.426 51.55 167.02 51.46 167.716 51.46C168.472 51.46 169.108 51.556 169.624 51.748C170.152 51.928 170.572 52.174 170.884 52.486C171.196 52.798 171.424 53.164 171.568 53.584C171.712 54.004 171.784 54.448 171.784 54.916V60.568C171.784 60.688 171.742 60.79 171.658 60.874C171.574 60.958 171.472 61 171.352 61H169.894C169.762 61 169.654 60.958 169.57 60.874C169.498 60.79 169.462 60.688 169.462 60.568V59.866C169.306 60.082 169.096 60.292 168.832 60.496C168.568 60.7 168.244 60.868 167.86 61C167.488 61.12 167.044 61.18 166.528 61.18ZM167.14 59.47C167.56 59.47 167.938 59.38 168.274 59.2C168.622 59.02 168.892 58.744 169.084 58.372C169.288 57.988 169.39 57.508 169.39 56.932V56.554L167.59 56.842C166.882 56.95 166.354 57.124 166.006 57.364C165.658 57.604 165.484 57.898 165.484 58.246C165.484 58.51 165.562 58.738 165.718 58.93C165.886 59.11 166.096 59.248 166.348 59.344C166.6 59.428 166.864 59.47 167.14 59.47ZM174.885 61C174.765 61 174.663 60.958 174.579 60.874C174.495 60.79 174.453 60.688 174.453 60.568V52.072C174.453 51.952 174.495 51.85 174.579 51.766C174.663 51.682 174.765 51.64 174.885 51.64H176.379C176.511 51.64 176.613 51.682 176.685 51.766C176.769 51.85 176.811 51.952 176.811 52.072V60.568C176.811 60.688 176.769 60.79 176.685 60.874C176.613 60.958 176.511 61 176.379 61H174.885ZM174.813 50.092C174.693 50.092 174.591 50.05 174.507 49.966C174.423 49.882 174.381 49.78 174.381 49.66V48.364C174.381 48.244 174.423 48.142 174.507 48.058C174.591 47.974 174.693 47.932 174.813 47.932H176.451C176.583 47.932 176.691 47.974 176.775 48.058C176.859 48.142 176.901 48.244 176.901 48.364V49.66C176.901 49.78 176.859 49.882 176.775 49.966C176.691 50.05 176.583 50.092 176.451 50.092H174.813ZM180.009 61C179.889 61 179.787 60.958 179.703 60.874C179.619 60.79 179.577 60.688 179.577 60.568V48.652C179.577 48.532 179.619 48.43 179.703 48.346C179.787 48.262 179.889 48.22 180.009 48.22H181.503C181.623 48.22 181.725 48.262 181.809 48.346C181.893 48.43 181.935 48.532 181.935 48.652V60.568C181.935 60.688 181.893 60.79 181.809 60.874C181.725 60.958 181.623 61 181.503 61H180.009Z" fill="#14183E"/>
<defs>
<filter id="filter0_d_21_381" x="0" y="0" width="472" height="178" filterUnits="userSpaceOnUse" color-interpolation-filters="sRGB">
<feFlood flood-opacity="0" result="BackgroundImageFix"/>
<feColorMatrix in="SourceAlpha" type="matrix" values="0 0 0 0 0 0 0 0 0 0 0 0 0 0 0 0 0 0 127 0" result="hardAlpha"/>
<feOffset dy="34"/>
<feGaussianBlur stdDeviation="25"/>
<feColorMatrix type="matrix" values="0 0 0 0 0.0273438 0 0 0 0 0.248391 0 0 0 0 0.2625 0 0 0 0.07 0"/>
<feBlend mode="normal" in2="BackgroundImageFix" result="effect1_dropShadow_21_381"/>
<feBlend mode="normal" in="SourceGraphic" in2="effect1_dropShadow_21_381" result="shape"/>
</filter>
<linearGradient id="paint0_linear_21_381" x1="236" y1="110.632" x2="219.046" y2="-42.0302" gradientUnits="userSpaceOnUse">
<stop stop-color="white"/>
<stop offset="1" stop-color="#E2E2E2"/>
</linearGradient>
<linearGradient id="paint1_linear_21_381" x1="236" y1="16" x2="236" y2="94" gradientUnits="userSpaceOnUse">
<stop stop-color="white" stop-opacity="0.2"/>
<stop offset="1" stop-color="white" stop-opacity="0"/>
</linearGradient>
</defs>
</svg>
