<svg width="109" height="220" viewBox="0 0 109 220" fill="none" xmlns="http://www.w3.org/2000/svg">
<path d="M-51.4897 206.84V47.7215L-30.0463 35.6291L-0.370022 31.7944L6.01995 157.115L-0.370022 193.823L-25.9299 206.642L-51.4897 206.84Z" fill="#F39321"/>
<path d="M-0.370361 193.823V42.2194L25.1895 45.1298L50.7494 58.1465C50.7494 60.1356 50.7494 204.852 50.7494 206.84L25.1895 206.642L-0.370361 193.823Z" fill="#F3A141"/>
<path fill-rule="evenodd" clip-rule="evenodd" d="M-13.3708 197.134C-27.2638 200.671 -47.2048 205.749 -51.49 206.84L-0.370472 219.659H-0.370262L50.7493 206.84L37.8716 203.561C23.9738 200.022 3.92809 194.918 -0.370232 193.823L-0.370262 193.823C-0.370296 193.823 -0.370335 193.823 -0.370369 193.823C-0.370403 193.823 -0.370438 193.823 -0.370472 193.823V193.823C-2.27624 194.309 -7.23338 195.571 -13.3708 197.134Z" fill="#F8C67C"/>
<path d="M-51.49 35.3864V-45.9999C-45.1465 -44.409 -6.62263 -34.7484 -0.370262 -33.1806L6.0197 7.12542L-0.370262 47.4314C-7.91553 47.0631 -23.8018 46.2871 -28.2731 46.0687C-31.0928 44.7718 -48.6601 36.6884 -51.49 35.3864Z" fill="#6BCD49"/>
<path d="M50.7491 35.3865L57.1391 -5.30625L50.7491 -45.9994C44.5653 -44.4487 5.85407 -34.7411 -0.370605 -33.1801C-0.370605 -28.704 -0.370605 42.9562 -0.370605 47.4319L25.1892 46.4965L50.7491 35.3865Z" fill="#5EBA3F"/>
<path d="M108.259 48.9373V-31.5781C87.6728 -36.7405 70.6525 -41.0084 50.749 -45.9998C50.749 -41.4759 50.749 30.8629 50.749 35.3864L79.5039 47.4318L108.259 48.9373Z" fill="#6BCD49"/>
<path fill-rule="evenodd" clip-rule="evenodd" d="M50.7493 63.3589L108.259 48.9373C101.265 47.2891 57.7582 37.0377 50.7491 35.3864L50.7491 35.3864L50.749 35.3864C50.749 35.3864 50.749 35.3864 50.7489 35.3864V35.3865L25.1892 41.4089L-0.370605 47.4314C1.84456 48.1216 3.9642 48.782 5.99243 49.414C13.6534 51.8009 20.0102 53.7816 25.2838 55.4242C48.2114 62.5681 50.6589 63.3307 50.7489 63.3588V63.3588C50.7249 63.3513 50.5544 63.2982 50.7489 63.3589V63.359L50.749 63.3589C50.7491 63.3589 50.7491 63.3589 50.7491 63.359L50.7492 63.3589C50.7508 63.3594 50.7516 63.3596 50.7516 63.3596C50.7516 63.3596 50.7509 63.3594 50.7493 63.3589Z" fill="#C9F87C"/>
</svg>
