<svg width="94" height="21" viewBox="0 0 94 21" fill="none" xmlns="http://www.w3.org/2000/svg">
<path d="M5.148 17C5.028 17 4.926 16.958 4.842 16.874C4.758 16.79 4.716 16.688 4.716 16.568V12.5L0.468 4.976C0.456 4.952 0.444 4.922 0.432 4.886C0.42 4.85 0.414 4.814 0.414 4.778C0.414 4.67 0.45 4.58 0.522 4.508C0.594 4.436 0.678 4.4 0.774 4.4H2.376C2.52 4.4 2.634 4.436 2.718 4.508C2.814 4.58 2.88 4.658 2.916 4.742L5.976 9.98L9.018 4.742C9.066 4.658 9.132 4.58 9.216 4.508C9.312 4.436 9.432 4.4 9.576 4.4H11.16C11.268 4.4 11.358 4.436 11.43 4.508C11.502 4.58 11.538 4.67 11.538 4.778C11.538 4.814 11.532 4.85 11.52 4.886C11.52 4.922 11.508 4.952 11.484 4.976L7.236 12.5V16.568C7.236 16.688 7.194 16.79 7.11 16.874C7.026 16.958 6.918 17 6.786 17H5.148ZM16.0942 17.18C15.1342 17.18 14.3242 17.012 13.6642 16.676C13.0162 16.34 12.5182 15.866 12.1702 15.254C11.8342 14.642 11.6422 13.928 11.5942 13.112C11.5822 12.896 11.5762 12.632 11.5762 12.32C11.5762 12.008 11.5822 11.744 11.5942 11.528C11.6422 10.7 11.8402 9.986 12.1882 9.386C12.5482 8.774 13.0522 8.3 13.7002 7.964C14.3602 7.628 15.1582 7.46 16.0942 7.46C17.0302 7.46 17.8223 7.628 18.4703 7.964C19.1302 8.3 19.6342 8.774 19.9823 9.386C20.3423 9.986 20.5463 10.7 20.5942 11.528C20.6063 11.744 20.6123 12.008 20.6123 12.32C20.6123 12.632 20.6063 12.896 20.5942 13.112C20.5463 13.928 20.3483 14.642 20.0002 15.254C19.6642 15.866 19.1662 16.34 18.5062 16.676C17.8582 17.012 17.0542 17.18 16.0942 17.18ZM16.0942 15.398C16.7302 15.398 17.2222 15.2 17.5703 14.804C17.9182 14.396 18.1102 13.802 18.1463 13.022C18.1582 12.842 18.1642 12.608 18.1642 12.32C18.1642 12.032 18.1582 11.798 18.1463 11.618C18.1102 10.838 17.9182 10.25 17.5703 9.854C17.2222 9.446 16.7302 9.242 16.0942 9.242C15.4582 9.242 14.9662 9.446 14.6182 9.854C14.2702 10.25 14.0782 10.838 14.0422 11.618C14.0302 11.798 14.0242 12.032 14.0242 12.32C14.0242 12.608 14.0302 12.842 14.0422 13.022C14.0782 13.802 14.2702 14.396 14.6182 14.804C14.9662 15.2 15.4582 15.398 16.0942 15.398ZM26.4406 17.18C25.7086 17.18 25.0726 17.018 24.5326 16.694C24.0046 16.358 23.5966 15.89 23.3086 15.29C23.0206 14.678 22.8766 13.958 22.8766 13.13V8.072C22.8766 7.952 22.9186 7.85 23.0026 7.766C23.0866 7.682 23.1886 7.64 23.3086 7.64H24.8926C25.0246 7.64 25.1266 7.682 25.1986 7.766C25.2826 7.85 25.3246 7.952 25.3246 8.072V13.022C25.3246 14.51 25.9786 15.254 27.2866 15.254C27.9106 15.254 28.4026 15.056 28.7626 14.66C29.1346 14.264 29.3206 13.718 29.3206 13.022V8.072C29.3206 7.952 29.3626 7.85 29.4466 7.766C29.5306 7.682 29.6326 7.64 29.7526 7.64H31.3366C31.4566 7.64 31.5586 7.682 31.6426 7.766C31.7266 7.85 31.7686 7.952 31.7686 8.072V16.568C31.7686 16.688 31.7266 16.79 31.6426 16.874C31.5586 16.958 31.4566 17 31.3366 17H29.8786C29.7466 17 29.6386 16.958 29.5546 16.874C29.4826 16.79 29.4466 16.688 29.4466 16.568V15.83C29.1226 16.25 28.7206 16.58 28.2406 16.82C27.7606 17.06 27.1606 17.18 26.4406 17.18ZM34.9383 17C34.8183 17 34.7163 16.958 34.6323 16.874C34.5483 16.79 34.5063 16.688 34.5063 16.568V8.09C34.5063 7.958 34.5483 7.85 34.6323 7.766C34.7163 7.682 34.8183 7.64 34.9383 7.64H36.3963C36.5163 7.64 36.6183 7.682 36.7023 7.766C36.7983 7.85 36.8463 7.958 36.8463 8.09V8.828C37.1223 8.444 37.4763 8.15 37.9083 7.946C38.3523 7.742 38.8623 7.64 39.4383 7.64H40.1763C40.3083 7.64 40.4103 7.682 40.4823 7.766C40.5663 7.85 40.6083 7.952 40.6083 8.072V9.368C40.6083 9.488 40.5663 9.59 40.4823 9.674C40.4103 9.758 40.3083 9.8 40.1763 9.8H38.7723C38.1963 9.8 37.7463 9.962 37.4223 10.286C37.1103 10.598 36.9543 11.042 36.9543 11.618V16.568C36.9543 16.688 36.9123 16.79 36.8283 16.874C36.7443 16.958 36.6363 17 36.5043 17H34.9383ZM50.4907 17.18C49.1587 17.18 48.1027 16.796 47.3227 16.028C46.5427 15.26 46.1227 14.168 46.0627 12.752C46.0507 12.632 46.0447 12.482 46.0447 12.302C46.0447 12.11 46.0507 11.96 46.0627 11.852C46.1107 10.94 46.3147 10.16 46.6747 9.512C47.0467 8.852 47.5567 8.348 48.2047 8C48.8527 7.64 49.6147 7.46 50.4907 7.46C51.4627 7.46 52.2787 7.664 52.9387 8.072C53.5987 8.468 54.0967 9.026 54.4327 9.746C54.7687 10.454 54.9367 11.276 54.9367 12.212V12.59C54.9367 12.71 54.8947 12.812 54.8107 12.896C54.7267 12.98 54.6187 13.022 54.4867 13.022H48.5107C48.5107 13.022 48.5107 13.04 48.5107 13.076C48.5107 13.112 48.5107 13.142 48.5107 13.166C48.5227 13.586 48.6007 13.976 48.7447 14.336C48.9007 14.684 49.1227 14.966 49.4107 15.182C49.7107 15.398 50.0647 15.506 50.4727 15.506C50.8087 15.506 51.0907 15.458 51.3187 15.362C51.5467 15.254 51.7327 15.134 51.8767 15.002C52.0207 14.87 52.1227 14.762 52.1827 14.678C52.2907 14.534 52.3747 14.45 52.4347 14.426C52.5067 14.39 52.6087 14.372 52.7407 14.372H54.2887C54.4087 14.372 54.5047 14.408 54.5767 14.48C54.6607 14.552 54.6967 14.642 54.6847 14.75C54.6727 14.942 54.5707 15.176 54.3787 15.452C54.1987 15.728 53.9347 15.998 53.5867 16.262C53.2387 16.526 52.8007 16.748 52.2727 16.928C51.7567 17.096 51.1627 17.18 50.4907 17.18ZM48.5107 11.51H52.4887V11.456C52.4887 10.988 52.4107 10.58 52.2547 10.232C52.0987 9.872 51.8707 9.596 51.5707 9.404C51.2707 9.2 50.9107 9.098 50.4907 9.098C50.0707 9.098 49.7107 9.2 49.4107 9.404C49.1107 9.596 48.8827 9.872 48.7267 10.232C48.5827 10.58 48.5107 10.988 48.5107 11.456V11.51ZM57.6394 17C57.5194 17 57.4174 16.958 57.3334 16.874C57.2494 16.79 57.2074 16.688 57.2074 16.568V8.072C57.2074 7.952 57.2494 7.85 57.3334 7.766C57.4174 7.682 57.5194 7.64 57.6394 7.64H59.0434C59.1634 7.64 59.2654 7.682 59.3494 7.766C59.4334 7.85 59.4754 7.952 59.4754 8.072V8.684C59.7274 8.348 60.0634 8.066 60.4834 7.838C60.9154 7.598 61.4254 7.472 62.0134 7.46C63.3814 7.436 64.3354 7.97 64.8754 9.062C65.1514 8.582 65.5474 8.198 66.0634 7.91C66.5914 7.61 67.1734 7.46 67.8094 7.46C68.4334 7.46 68.9974 7.604 69.5014 7.892C70.0174 8.18 70.4194 8.618 70.7074 9.206C71.0074 9.782 71.1574 10.514 71.1574 11.402V16.568C71.1574 16.688 71.1154 16.79 71.0314 16.874C70.9474 16.958 70.8454 17 70.7254 17H69.2494C69.1294 17 69.0274 16.958 68.9434 16.874C68.8594 16.79 68.8174 16.688 68.8174 16.568V11.546C68.8174 11.006 68.7394 10.58 68.5834 10.268C68.4274 9.944 68.2174 9.716 67.9534 9.584C67.6894 9.452 67.3954 9.386 67.0714 9.386C66.8074 9.386 66.5434 9.452 66.2794 9.584C66.0154 9.716 65.7994 9.944 65.6314 10.268C65.4634 10.58 65.3794 11.006 65.3794 11.546V16.568C65.3794 16.688 65.3374 16.79 65.2534 16.874C65.1694 16.958 65.0674 17 64.9474 17H63.4714C63.3514 17 63.2494 16.958 63.1654 16.874C63.0814 16.79 63.0394 16.688 63.0394 16.568V11.546C63.0394 11.006 62.9554 10.58 62.7874 10.268C62.6194 9.944 62.4034 9.716 62.1394 9.584C61.8754 9.452 61.5934 9.386 61.2934 9.386C61.0174 9.386 60.7474 9.458 60.4834 9.602C60.2194 9.734 60.0034 9.956 59.8354 10.268C59.6674 10.58 59.5834 11.006 59.5834 11.546V16.568C59.5834 16.688 59.5414 16.79 59.4574 16.874C59.3734 16.958 59.2714 17 59.1514 17H57.6394ZM76.5276 17.18C75.9036 17.18 75.3396 17.06 74.8356 16.82C74.3316 16.568 73.9296 16.238 73.6296 15.83C73.3416 15.41 73.1976 14.942 73.1976 14.426C73.1976 13.586 73.5396 12.92 74.2236 12.428C74.9076 11.924 75.8016 11.588 76.9056 11.42L79.3716 11.06V10.682C79.3716 10.178 79.2456 9.788 78.9936 9.512C78.7416 9.236 78.3096 9.098 77.6976 9.098C77.2656 9.098 76.9116 9.188 76.6356 9.368C76.3716 9.536 76.1736 9.764 76.0416 10.052C75.9456 10.208 75.8076 10.286 75.6276 10.286H74.2056C74.0736 10.286 73.9716 10.25 73.8996 10.178C73.8396 10.106 73.8096 10.01 73.8096 9.89C73.8216 9.698 73.8996 9.464 74.0436 9.188C74.1996 8.912 74.4276 8.648 74.7276 8.396C75.0396 8.132 75.4416 7.91 75.9336 7.73C76.4256 7.55 77.0196 7.46 77.7156 7.46C78.4716 7.46 79.1076 7.556 79.6236 7.748C80.1516 7.928 80.5716 8.174 80.8836 8.486C81.1956 8.798 81.4236 9.164 81.5676 9.584C81.7116 10.004 81.7836 10.448 81.7836 10.916V16.568C81.7836 16.688 81.7416 16.79 81.6576 16.874C81.5736 16.958 81.4716 17 81.3516 17H79.8936C79.7616 17 79.6536 16.958 79.5696 16.874C79.4976 16.79 79.4616 16.688 79.4616 16.568V15.866C79.3056 16.082 79.0956 16.292 78.8316 16.496C78.5676 16.7 78.2436 16.868 77.8596 17C77.4876 17.12 77.0436 17.18 76.5276 17.18ZM77.1396 15.47C77.5596 15.47 77.9376 15.38 78.2736 15.2C78.6216 15.02 78.8916 14.744 79.0836 14.372C79.2876 13.988 79.3896 13.508 79.3896 12.932V12.554L77.5896 12.842C76.8816 12.95 76.3536 13.124 76.0056 13.364C75.6576 13.604 75.4836 13.898 75.4836 14.246C75.4836 14.51 75.5616 14.738 75.7176 14.93C75.8856 15.11 76.0956 15.248 76.3476 15.344C76.5996 15.428 76.8636 15.47 77.1396 15.47ZM84.8848 17C84.7648 17 84.6628 16.958 84.5788 16.874C84.4948 16.79 84.4528 16.688 84.4528 16.568V8.072C84.4528 7.952 84.4948 7.85 84.5788 7.766C84.6628 7.682 84.7648 7.64 84.8848 7.64H86.3788C86.5108 7.64 86.6128 7.682 86.6848 7.766C86.7688 7.85 86.8108 7.952 86.8108 8.072V16.568C86.8108 16.688 86.7688 16.79 86.6848 16.874C86.6128 16.958 86.5108 17 86.3788 17H84.8848ZM84.8128 6.092C84.6928 6.092 84.5908 6.05 84.5068 5.966C84.4228 5.882 84.3808 5.78 84.3808 5.66V4.364C84.3808 4.244 84.4228 4.142 84.5068 4.058C84.5908 3.974 84.6928 3.932 84.8128 3.932H86.4508C86.5828 3.932 86.6908 3.974 86.7748 4.058C86.8588 4.142 86.9008 4.244 86.9008 4.364V5.66C86.9008 5.78 86.8588 5.882 86.7748 5.966C86.6908 6.05 86.5828 6.092 86.4508 6.092H84.8128ZM90.0089 17C89.8889 17 89.7869 16.958 89.7029 16.874C89.6189 16.79 89.5769 16.688 89.5769 16.568V4.652C89.5769 4.532 89.6189 4.43 89.7029 4.346C89.7869 4.262 89.8889 4.22 90.0089 4.22H91.5029C91.6229 4.22 91.7249 4.262 91.8089 4.346C91.8929 4.43 91.9349 4.532 91.9349 4.652V16.568C91.9349 16.688 91.8929 16.79 91.8089 16.874C91.7249 16.958 91.6229 17 91.5029 17H90.0089Z" fill="#14183E"/>
</svg>
