<svg width="343" height="191" viewBox="0 0 343 191" fill="none" xmlns="http://www.w3.org/2000/svg">
<g opacity="0.2" filter="url(#filter0_f_21_1256)">
<rect x="87" y="54" width="167" height="64" fill="#C2E463"/>
</g>
<g filter="url(#filter1_d_21_1256)">
<rect x="50" y="29" width="243" height="78" rx="39" fill="url(#paint0_linear_21_1256)"/>
<rect x="50.5" y="29.5" width="242" height="77" rx="38.5" stroke="url(#paint1_linear_21_1256)"/>
</g>
<g filter="url(#filter2_d_21_1256)">
<path d="M119.1 75.2C117.847 75.2 116.773 74.9933 115.88 74.58C115 74.1533 114.313 73.54 113.82 72.74C113.34 71.9267 113.08 70.9467 113.04 69.8C113.027 69.2267 113.02 68.6133 113.02 67.96C113.02 67.3067 113.027 66.6867 113.04 66.1C113.08 64.98 113.34 64.0267 113.82 63.24C114.313 62.4533 115.007 61.8533 115.9 61.44C116.807 61.0133 117.873 60.8 119.1 60.8C120.087 60.8 120.953 60.9267 121.7 61.18C122.447 61.4333 123.073 61.7667 123.58 62.18C124.1 62.58 124.487 63.02 124.74 63.5C125.007 63.98 125.147 64.4467 125.16 64.9C125.16 65.02 125.12 65.12 125.04 65.2C124.96 65.28 124.853 65.32 124.72 65.32H122.24C122.107 65.32 122 65.2933 121.92 65.24C121.853 65.1867 121.793 65.1067 121.74 65C121.647 64.7733 121.493 64.5333 121.28 64.28C121.08 64.0267 120.807 63.82 120.46 63.66C120.113 63.4867 119.66 63.4 119.1 63.4C118.26 63.4 117.593 63.62 117.1 64.06C116.62 64.5 116.36 65.2133 116.32 66.2C116.28 67.3467 116.28 68.5133 116.32 69.7C116.36 70.7267 116.633 71.4667 117.14 71.92C117.647 72.3733 118.313 72.6 119.14 72.6C119.687 72.6 120.173 72.5067 120.6 72.32C121.04 72.12 121.387 71.82 121.64 71.42C121.893 71.0067 122.02 70.48 122.02 69.84V69.34H119.84C119.707 69.34 119.593 69.2933 119.5 69.2C119.407 69.0933 119.36 68.9733 119.36 68.84V67.56C119.36 67.4133 119.407 67.2933 119.5 67.2C119.593 67.1067 119.707 67.06 119.84 67.06H124.76C124.907 67.06 125.027 67.1067 125.12 67.2C125.213 67.2933 125.26 67.4133 125.26 67.56V69.74C125.26 70.8867 125.007 71.8667 124.5 72.68C123.993 73.4933 123.273 74.12 122.34 74.56C121.42 74.9867 120.34 75.2 119.1 75.2ZM132.499 75.2C130.966 75.2 129.746 74.7733 128.839 73.92C127.946 73.0667 127.473 71.8267 127.419 70.2C127.419 70.0933 127.419 69.9533 127.419 69.78C127.419 69.5933 127.419 69.4533 127.419 69.36C127.473 68.32 127.706 67.4333 128.119 66.7C128.533 65.9533 129.113 65.3867 129.859 65C130.606 64.6 131.479 64.4 132.479 64.4C133.613 64.4 134.553 64.6333 135.299 65.1C136.046 65.5533 136.606 66.18 136.979 66.98C137.366 67.7667 137.559 68.6733 137.559 69.7V70.16C137.559 70.2933 137.513 70.4133 137.419 70.52C137.326 70.6133 137.206 70.66 137.059 70.66H130.539C130.539 70.66 130.539 70.68 130.539 70.72C130.539 70.7467 130.539 70.7733 130.539 70.8C130.553 71.2267 130.633 71.62 130.779 71.98C130.926 72.3267 131.139 72.6067 131.419 72.82C131.713 73.0333 132.066 73.14 132.479 73.14C132.799 73.14 133.066 73.0933 133.279 73C133.493 72.8933 133.666 72.78 133.799 72.66C133.946 72.5267 134.053 72.4133 134.119 72.32C134.239 72.1733 134.333 72.0867 134.399 72.06C134.479 72.02 134.593 72 134.739 72H136.859C136.979 72 137.079 72.04 137.159 72.12C137.253 72.2 137.293 72.3 137.279 72.42C137.266 72.6467 137.153 72.92 136.939 73.24C136.739 73.5467 136.439 73.8533 136.039 74.16C135.639 74.4533 135.139 74.7 134.539 74.9C133.953 75.1 133.273 75.2 132.499 75.2ZM130.539 68.82H134.439V68.76C134.439 68.2933 134.359 67.8867 134.199 67.54C134.053 67.18 133.833 66.9 133.539 66.7C133.246 66.5 132.893 66.4 132.479 66.4C132.066 66.4 131.713 66.5 131.419 66.7C131.139 66.9 130.919 67.18 130.759 67.54C130.613 67.8867 130.539 68.2933 130.539 68.76V68.82ZM144.939 75C144.112 75 143.406 74.8667 142.819 74.6C142.246 74.32 141.806 73.8933 141.499 73.32C141.192 72.7467 141.039 72.0267 141.039 71.16V66.96H139.479C139.332 66.96 139.212 66.9133 139.119 66.82C139.026 66.7267 138.979 66.6133 138.979 66.48V65.1C138.979 64.9533 139.026 64.8333 139.119 64.74C139.212 64.6467 139.332 64.6 139.479 64.6H141.039V61.3C141.039 61.1533 141.086 61.0333 141.179 60.94C141.286 60.8467 141.406 60.8 141.539 60.8H143.519C143.652 60.8 143.766 60.8467 143.859 60.94C143.952 61.0333 143.999 61.1533 143.999 61.3V64.6H146.499C146.646 64.6 146.766 64.6467 146.859 64.74C146.952 64.8333 146.999 64.9533 146.999 65.1V66.48C146.999 66.6133 146.952 66.7267 146.859 66.82C146.766 66.9133 146.646 66.96 146.499 66.96H143.999V70.92C143.999 71.4267 144.092 71.8267 144.279 72.12C144.466 72.4 144.779 72.54 145.219 72.54H146.679C146.826 72.54 146.946 72.5867 147.039 72.68C147.132 72.7733 147.179 72.8867 147.179 73.02V74.5C147.179 74.6467 147.132 74.7667 147.039 74.86C146.946 74.9533 146.826 75 146.679 75H144.939ZM159.378 75.2C158.098 75.2 157.024 75.0133 156.158 74.64C155.304 74.2667 154.658 73.78 154.218 73.18C153.778 72.58 153.544 71.94 153.518 71.26C153.518 71.14 153.558 71.04 153.638 70.96C153.718 70.88 153.818 70.84 153.938 70.84H156.098C156.271 70.84 156.404 70.8733 156.498 70.94C156.591 71.0067 156.678 71.0933 156.758 71.2C156.851 71.44 156.998 71.6667 157.198 71.88C157.411 72.0933 157.691 72.2667 158.038 72.4C158.398 72.5333 158.844 72.6 159.378 72.6C160.244 72.6 160.891 72.46 161.318 72.18C161.758 71.9 161.978 71.52 161.978 71.04C161.978 70.7067 161.858 70.4333 161.618 70.22C161.391 70.0067 161.024 69.8133 160.518 69.64C160.024 69.4667 159.364 69.2867 158.538 69.1C157.538 68.8733 156.684 68.5933 155.978 68.26C155.284 67.9133 154.758 67.4733 154.398 66.94C154.051 66.3933 153.878 65.72 153.878 64.92C153.878 64.12 154.098 63.4133 154.538 62.8C154.978 62.1733 155.598 61.6867 156.398 61.34C157.198 60.98 158.151 60.8 159.258 60.8C160.151 60.8 160.938 60.92 161.618 61.16C162.311 61.4 162.884 61.7133 163.338 62.1C163.804 62.4867 164.158 62.9 164.398 63.34C164.638 63.78 164.764 64.2067 164.778 64.62C164.778 64.74 164.738 64.8467 164.658 64.94C164.591 65.02 164.491 65.06 164.358 65.06H162.118C161.984 65.06 161.864 65.0333 161.758 64.98C161.651 64.9267 161.558 64.8333 161.478 64.7C161.411 64.34 161.178 64.0333 160.778 63.78C160.391 63.5267 159.884 63.4 159.258 63.4C158.604 63.4 158.084 63.52 157.698 63.76C157.324 63.9867 157.138 64.3467 157.138 64.84C157.138 65.16 157.238 65.4333 157.438 65.66C157.638 65.8733 157.964 66.0667 158.418 66.24C158.871 66.4 159.484 66.5733 160.258 66.76C161.418 67 162.364 67.2933 163.098 67.64C163.831 67.9733 164.371 68.4067 164.718 68.94C165.064 69.46 165.238 70.12 165.238 70.92C165.238 71.8133 164.991 72.58 164.498 73.22C164.004 73.86 163.318 74.3533 162.438 74.7C161.558 75.0333 160.538 75.2 159.378 75.2ZM172.565 75C171.738 75 171.031 74.8667 170.445 74.6C169.871 74.32 169.431 73.8933 169.125 73.32C168.818 72.7467 168.665 72.0267 168.665 71.16V66.96H167.105C166.958 66.96 166.838 66.9133 166.745 66.82C166.651 66.7267 166.605 66.6133 166.605 66.48V65.1C166.605 64.9533 166.651 64.8333 166.745 64.74C166.838 64.6467 166.958 64.6 167.105 64.6H168.665V61.3C168.665 61.1533 168.711 61.0333 168.805 60.94C168.911 60.8467 169.031 60.8 169.165 60.8H171.145C171.278 60.8 171.391 60.8467 171.485 60.94C171.578 61.0333 171.625 61.1533 171.625 61.3V64.6H174.125C174.271 64.6 174.391 64.6467 174.485 64.74C174.578 64.8333 174.625 64.9533 174.625 65.1V66.48C174.625 66.6133 174.578 66.7267 174.485 66.82C174.391 66.9133 174.271 66.96 174.125 66.96H171.625V70.92C171.625 71.4267 171.718 71.8267 171.905 72.12C172.091 72.4 172.405 72.54 172.845 72.54H174.305C174.451 72.54 174.571 72.5867 174.665 72.68C174.758 72.7733 174.805 72.8867 174.805 73.02V74.5C174.805 74.6467 174.758 74.7667 174.665 74.86C174.571 74.9533 174.451 75 174.305 75H172.565ZM179.99 75.2C179.283 75.2 178.65 75.0667 178.09 74.8C177.53 74.52 177.083 74.1467 176.75 73.68C176.416 73.2133 176.25 72.6933 176.25 72.12C176.25 71.1733 176.63 70.4267 177.39 69.88C178.163 69.3333 179.176 68.96 180.43 68.76L183.05 68.38V68.02C183.05 67.5 182.93 67.1 182.69 66.82C182.45 66.54 182.03 66.4 181.43 66.4C180.99 66.4 180.636 66.4867 180.37 66.66C180.116 66.8333 179.916 67.06 179.77 67.34C179.663 67.5133 179.503 67.6 179.29 67.6H177.39C177.243 67.6 177.13 67.56 177.05 67.48C176.97 67.3867 176.936 67.28 176.95 67.16C176.95 66.9333 177.036 66.6667 177.21 66.36C177.383 66.0533 177.65 65.7533 178.01 65.46C178.37 65.1533 178.83 64.9 179.39 64.7C179.963 64.5 180.65 64.4 181.45 64.4C182.29 64.4 183.01 64.5 183.61 64.7C184.21 64.9 184.69 65.18 185.05 65.54C185.423 65.9 185.69 66.32 185.85 66.8C186.023 67.2667 186.11 67.7733 186.11 68.32V74.5C186.11 74.6467 186.063 74.7667 185.97 74.86C185.876 74.9533 185.763 75 185.63 75H183.65C183.516 75 183.403 74.9533 183.31 74.86C183.216 74.7667 183.17 74.6467 183.17 74.5V73.76C182.996 74.0133 182.763 74.2533 182.47 74.48C182.176 74.6933 181.823 74.8667 181.41 75C181.01 75.1333 180.536 75.2 179.99 75.2ZM180.79 73.12C181.23 73.12 181.623 73.0267 181.97 72.84C182.316 72.6533 182.59 72.3667 182.79 71.98C182.99 71.5933 183.09 71.1067 183.09 70.52V70.18L181.23 70.48C180.523 70.6 180.003 70.78 179.67 71.02C179.336 71.26 179.17 71.5533 179.17 71.9C179.17 72.1533 179.243 72.3733 179.39 72.56C179.55 72.7333 179.75 72.8733 179.99 72.98C180.243 73.0733 180.51 73.12 180.79 73.12ZM189.411 75C189.278 75 189.158 74.9533 189.051 74.86C188.958 74.7667 188.911 74.6467 188.911 74.5V65.1C188.911 64.9667 188.958 64.8533 189.051 64.76C189.158 64.6533 189.278 64.6 189.411 64.6H191.371C191.518 64.6 191.638 64.6533 191.731 64.76C191.824 64.8533 191.871 64.9667 191.871 65.1V65.9C192.204 65.4867 192.618 65.1667 193.111 64.94C193.604 64.7133 194.164 64.6 194.791 64.6H195.651C195.798 64.6 195.918 64.6467 196.011 64.74C196.104 64.8333 196.151 64.9533 196.151 65.1V66.84C196.151 66.9733 196.104 67.0867 196.011 67.18C195.918 67.2733 195.798 67.32 195.651 67.32H193.911C193.311 67.32 192.844 67.4867 192.511 67.82C192.191 68.1533 192.031 68.6133 192.031 69.2V74.5C192.031 74.6467 191.978 74.7667 191.871 74.86C191.778 74.9533 191.664 75 191.531 75H189.411ZM203.042 75C202.215 75 201.509 74.8667 200.922 74.6C200.349 74.32 199.909 73.8933 199.602 73.32C199.295 72.7467 199.142 72.0267 199.142 71.16V66.96H197.582C197.435 66.96 197.315 66.9133 197.222 66.82C197.129 66.7267 197.082 66.6133 197.082 66.48V65.1C197.082 64.9533 197.129 64.8333 197.222 64.74C197.315 64.6467 197.435 64.6 197.582 64.6H199.142V61.3C199.142 61.1533 199.189 61.0333 199.282 60.94C199.389 60.8467 199.509 60.8 199.642 60.8H201.622C201.755 60.8 201.869 60.8467 201.962 60.94C202.055 61.0333 202.102 61.1533 202.102 61.3V64.6H204.602C204.749 64.6 204.869 64.6467 204.962 64.74C205.055 64.8333 205.102 64.9533 205.102 65.1V66.48C205.102 66.6133 205.055 66.7267 204.962 66.82C204.869 66.9133 204.749 66.96 204.602 66.96H202.102V70.92C202.102 71.4267 202.195 71.8267 202.382 72.12C202.569 72.4 202.882 72.54 203.322 72.54H204.782C204.929 72.54 205.049 72.5867 205.142 72.68C205.235 72.7733 205.282 72.8867 205.282 73.02V74.5C205.282 74.6467 205.235 74.7667 205.142 74.86C205.049 74.9533 204.929 75 204.782 75H203.042ZM212.047 75.2C210.514 75.2 209.294 74.7733 208.387 73.92C207.494 73.0667 207.02 71.8267 206.967 70.2C206.967 70.0933 206.967 69.9533 206.967 69.78C206.967 69.5933 206.967 69.4533 206.967 69.36C207.02 68.32 207.254 67.4333 207.667 66.7C208.08 65.9533 208.66 65.3867 209.407 65C210.154 64.6 211.027 64.4 212.027 64.4C213.16 64.4 214.1 64.6333 214.847 65.1C215.594 65.5533 216.154 66.18 216.527 66.98C216.914 67.7667 217.107 68.6733 217.107 69.7V70.16C217.107 70.2933 217.06 70.4133 216.967 70.52C216.874 70.6133 216.754 70.66 216.607 70.66H210.087C210.087 70.66 210.087 70.68 210.087 70.72C210.087 70.7467 210.087 70.7733 210.087 70.8C210.1 71.2267 210.18 71.62 210.327 71.98C210.474 72.3267 210.687 72.6067 210.967 72.82C211.26 73.0333 211.614 73.14 212.027 73.14C212.347 73.14 212.614 73.0933 212.827 73C213.04 72.8933 213.214 72.78 213.347 72.66C213.494 72.5267 213.6 72.4133 213.667 72.32C213.787 72.1733 213.88 72.0867 213.947 72.06C214.027 72.02 214.14 72 214.287 72H216.407C216.527 72 216.627 72.04 216.707 72.12C216.8 72.2 216.84 72.3 216.827 72.42C216.814 72.6467 216.7 72.92 216.487 73.24C216.287 73.5467 215.987 73.8533 215.587 74.16C215.187 74.4533 214.687 74.7 214.087 74.9C213.5 75.1 212.82 75.2 212.047 75.2ZM210.087 68.82H213.987V68.76C213.987 68.2933 213.907 67.8867 213.747 67.54C213.6 67.18 213.38 66.9 213.087 66.7C212.794 66.5 212.44 66.4 212.027 66.4C211.614 66.4 211.26 66.5 210.967 66.7C210.687 66.9 210.467 67.18 210.307 67.54C210.16 67.8867 210.087 68.2933 210.087 68.76V68.82ZM223.386 75.2C222.719 75.2 222.126 75.0933 221.606 74.88C221.086 74.6533 220.646 74.3333 220.286 73.92C219.926 73.4933 219.652 72.9933 219.466 72.42C219.279 71.8333 219.166 71.1867 219.126 70.48C219.112 70.2267 219.106 70 219.106 69.8C219.106 69.5867 219.112 69.36 219.126 69.12C219.152 68.4267 219.259 67.7933 219.446 67.22C219.646 66.6467 219.919 66.1533 220.266 65.74C220.626 65.3133 221.066 64.9867 221.586 64.76C222.119 64.52 222.719 64.4 223.386 64.4C224.079 64.4 224.672 64.52 225.166 64.76C225.659 64.9867 226.066 65.28 226.386 65.64V61.3C226.386 61.1533 226.432 61.0333 226.526 60.94C226.619 60.8467 226.739 60.8 226.886 60.8H228.946C229.092 60.8 229.212 60.8467 229.306 60.94C229.399 61.0333 229.446 61.1533 229.446 61.3V74.5C229.446 74.6467 229.399 74.7667 229.306 74.86C229.212 74.9533 229.092 75 228.946 75H227.026C226.892 75 226.779 74.9533 226.686 74.86C226.592 74.7667 226.546 74.6467 226.546 74.5V73.82C226.212 74.22 225.792 74.5533 225.286 74.82C224.779 75.0733 224.146 75.2 223.386 75.2ZM224.306 72.8C224.799 72.8 225.192 72.6867 225.486 72.46C225.792 72.2333 226.012 71.9467 226.146 71.6C226.292 71.2533 226.372 70.88 226.386 70.48C226.412 70.2267 226.426 69.9733 226.426 69.72C226.426 69.4667 226.412 69.22 226.386 68.98C226.372 68.6067 226.286 68.26 226.126 67.94C225.979 67.6067 225.759 67.3333 225.466 67.12C225.172 66.9067 224.786 66.8 224.306 66.8C223.799 66.8 223.399 66.9133 223.106 67.14C222.812 67.3533 222.599 67.64 222.466 68C222.346 68.36 222.272 68.7533 222.246 69.18C222.219 69.5933 222.219 70.0067 222.246 70.42C222.272 70.8467 222.346 71.24 222.466 71.6C222.599 71.96 222.812 72.2533 223.106 72.48C223.399 72.6933 223.799 72.8 224.306 72.8Z" fill="white"/>
</g>
<defs>
<filter id="filter0_f_21_1256" x="33" y="0" width="275" height="172" filterUnits="userSpaceOnUse" color-interpolation-filters="sRGB">
<feFlood flood-opacity="0" result="BackgroundImageFix"/>
<feBlend mode="normal" in="SourceGraphic" in2="BackgroundImageFix" result="shape"/>
<feGaussianBlur stdDeviation="27" result="effect1_foregroundBlur_21_1256"/>
</filter>
<filter id="filter1_d_21_1256" x="0" y="13" width="343" height="178" filterUnits="userSpaceOnUse" color-interpolation-filters="sRGB">
<feFlood flood-opacity="0" result="BackgroundImageFix"/>
<feColorMatrix in="SourceAlpha" type="matrix" values="0 0 0 0 0 0 0 0 0 0 0 0 0 0 0 0 0 0 127 0" result="hardAlpha"/>
<feOffset dy="34"/>
<feGaussianBlur stdDeviation="25"/>
<feColorMatrix type="matrix" values="0 0 0 0 0.0273438 0 0 0 0 0.248391 0 0 0 0 0.2625 0 0 0 0.07 0"/>
<feBlend mode="normal" in2="BackgroundImageFix" result="effect1_dropShadow_21_1256"/>
<feBlend mode="normal" in="SourceGraphic" in2="effect1_dropShadow_21_1256" result="shape"/>
</filter>
<filter id="filter2_d_21_1256" x="93.02" y="44.8" width="156.426" height="54.4" filterUnits="userSpaceOnUse" color-interpolation-filters="sRGB">
<feFlood flood-opacity="0" result="BackgroundImageFix"/>
<feColorMatrix in="SourceAlpha" type="matrix" values="0 0 0 0 0 0 0 0 0 0 0 0 0 0 0 0 0 0 127 0" result="hardAlpha"/>
<feOffset dy="4"/>
<feGaussianBlur stdDeviation="10"/>
<feColorMatrix type="matrix" values="0 0 0 0 0 0 0 0 0 0 0 0 0 0 0 0 0 0 0.25 0"/>
<feBlend mode="normal" in2="BackgroundImageFix" result="effect1_dropShadow_21_1256"/>
<feBlend mode="normal" in="SourceGraphic" in2="effect1_dropShadow_21_1256" result="shape"/>
</filter>
<linearGradient id="paint0_linear_21_1256" x1="176" y1="113.5" x2="150.611" y2="-16.5099" gradientUnits="userSpaceOnUse">
<stop stop-color="#98AA28"/>
<stop offset="1" stop-color="#D6FF7E"/>
</linearGradient>
<linearGradient id="paint1_linear_21_1256" x1="251" y1="117.5" x2="101.5" y2="3" gradientUnits="userSpaceOnUse">
<stop stop-color="white" stop-opacity="0.69"/>
<stop offset="1" stop-color="white" stop-opacity="0.25"/>
</linearGradient>
</defs>
</svg>
