<svg width="36" height="36" viewBox="0 0 36 36" fill="none" xmlns="http://www.w3.org/2000/svg">
<path d="M26.768 35.5232C31.6034 35.5232 35.5232 31.6034 35.5232 26.768C35.5232 21.9326 31.6034 18.0127 26.768 18.0127C21.9326 18.0127 18.0127 21.9326 18.0127 26.768C18.0127 31.6034 21.9326 35.5232 26.768 35.5232Z" fill="#EDFF81"/>
<path d="M29.3946 12.7596C32.7793 12.7596 35.5232 10.0157 35.5232 6.63088C35.5232 3.2461 32.7793 0.502197 29.3946 0.502197C26.0098 0.502197 23.2659 3.2461 23.2659 6.63088C23.2659 10.0157 26.0098 12.7596 29.3946 12.7596Z" fill="white"/>
<path d="M6.68337 35.4707C10.0681 35.4707 12.8121 32.7268 12.8121 29.3421C12.8121 25.9573 10.0681 23.2134 6.68337 23.2134C3.29859 23.2134 0.554688 25.9573 0.554688 29.3421C0.554688 32.7268 3.29859 35.4707 6.68337 35.4707Z" fill="white"/>
<path d="M9.25746 18.0127C14.0929 18.0127 18.0127 14.0929 18.0127 9.25746C18.0127 4.42206 14.0929 0.502197 9.25746 0.502197C4.42206 0.502197 0.502197 4.42206 0.502197 9.25746C0.502197 14.0929 4.42206 18.0127 9.25746 18.0127Z" fill="#EDFF81"/>
</svg>
