<svg width="209" height="28" viewBox="0 0 209 28" fill="none" xmlns="http://www.w3.org/2000/svg">
<path d="M1.40054 27.2196C1.15772 27.2196 0.939194 27.1346 0.744944 26.9647C0.574975 26.7947 0.48999 26.5762 0.48999 26.3091V9.19078C0.48999 8.92369 0.574975 8.70516 0.744944 8.53519C0.939194 8.36522 1.15772 8.28023 1.40054 8.28023H4.78777C5.05487 8.28023 5.2734 8.36522 5.44337 8.53519C5.61334 8.70516 5.69832 8.92369 5.69832 9.19078V10.4291C6.20823 9.74925 6.8881 9.1665 7.73795 8.68088C8.61207 8.19525 9.64403 7.9403 10.8338 7.91602C13.6262 7.86745 15.5565 8.93583 16.6249 11.1211C17.1834 10.1742 17.9846 9.40931 19.0287 8.82656C20.0728 8.21953 21.2262 7.91602 22.4888 7.91602C23.7514 7.91602 24.8927 8.20739 25.9125 8.79014C26.9323 9.34861 27.7457 10.2227 28.3527 11.4125C28.9598 12.578 29.2633 14.0835 29.2633 15.9288V26.3091C29.2633 26.5762 29.1662 26.7947 28.9719 26.9647C28.8019 27.1346 28.5956 27.2196 28.3527 27.2196H24.747C24.4799 27.2196 24.2613 27.1346 24.0914 26.9647C23.9214 26.7947 23.8364 26.5762 23.8364 26.3091V16.2202C23.8364 15.2247 23.6907 14.4477 23.3994 13.8892C23.1323 13.3307 22.7559 12.9301 22.2703 12.6873C21.8089 12.4202 21.2869 12.2866 20.7041 12.2866C20.1942 12.2866 19.6965 12.4202 19.2108 12.6873C18.7495 12.9301 18.361 13.3307 18.0453 13.8892C17.754 14.4477 17.6083 15.2247 17.6083 16.2202V26.3091C17.6083 26.5762 17.5233 26.7947 17.3533 26.9647C17.1834 27.1346 16.977 27.2196 16.7342 27.2196H13.1284C12.8613 27.2196 12.6428 27.1346 12.4728 26.9647C12.3028 26.7947 12.2178 26.5762 12.2178 26.3091V16.2202C12.2178 15.2247 12.0722 14.4477 11.7808 13.8892C11.4894 13.3307 11.1009 12.9301 10.6153 12.6873C10.1539 12.4202 9.64403 12.2866 9.08556 12.2866C8.57565 12.2866 8.07789 12.4202 7.59226 12.6873C7.13092 12.9301 6.74242 13.3307 6.42676 13.8892C6.13538 14.4477 5.9897 15.2125 5.9897 16.1838V26.3091C5.9897 26.5762 5.90471 26.7947 5.73474 26.9647C5.56477 27.1346 5.34624 27.2196 5.07915 27.2196H1.40054Z" fill="white"/>
<path d="M39.9414 27.5838C38.6545 27.5838 37.5012 27.341 36.4814 26.8554C35.4616 26.3455 34.6481 25.6656 34.0411 24.8158C33.4341 23.9659 33.1306 23.019 33.1306 21.9749C33.1306 20.2509 33.8226 18.8911 35.2066 17.8956C36.6149 16.9001 38.4603 16.2202 40.7427 15.856L45.514 15.164V14.5084C45.514 13.5614 45.2955 12.833 44.8584 12.3231C44.4213 11.8132 43.6565 11.5582 42.5638 11.5582C41.7625 11.5582 41.1191 11.716 40.6335 12.0317C40.1721 12.3473 39.8079 12.7601 39.5408 13.27C39.3466 13.5857 39.0552 13.7435 38.6667 13.7435H35.2066C34.9395 13.7435 34.7331 13.6707 34.5874 13.525C34.4417 13.355 34.381 13.1608 34.4053 12.9422C34.4053 12.5295 34.5631 12.0438 34.8788 11.4854C35.1945 10.9269 35.6801 10.3806 36.3357 9.84638C36.9913 9.28791 37.829 8.82656 38.8488 8.46234C39.8929 8.09812 41.1434 7.91602 42.6002 7.91602C44.13 7.91602 45.4412 8.09812 46.5338 8.46234C47.6265 8.82656 48.5006 9.33647 49.1562 9.99206C49.8361 10.6477 50.3217 11.4125 50.6131 12.2866C50.9287 13.1365 51.0865 14.0592 51.0865 15.0547V26.3091C51.0865 26.5762 51.0016 26.7947 50.8316 26.9647C50.6616 27.1346 50.4552 27.2196 50.2124 27.2196H46.6067C46.3638 27.2196 46.1574 27.1346 45.9875 26.9647C45.8175 26.7947 45.7325 26.5762 45.7325 26.3091V24.9615C45.4169 25.4228 44.992 25.8599 44.4578 26.2727C43.9236 26.6612 43.2801 26.9768 42.5274 27.2196C41.799 27.4624 40.937 27.5838 39.9414 27.5838ZM41.3983 23.796C42.1996 23.796 42.9159 23.626 43.5472 23.2861C44.1785 22.9461 44.6763 22.4241 45.0405 21.7199C45.4047 21.0158 45.5868 20.1295 45.5868 19.0611V18.4419L42.1996 18.9883C40.9127 19.2068 39.9657 19.5346 39.3587 19.9717C38.7517 20.4087 38.4482 20.9429 38.4482 21.5742C38.4482 22.0356 38.5817 22.4362 38.8488 22.7761C39.1402 23.0918 39.5044 23.3468 39.9414 23.541C40.4028 23.711 40.8884 23.796 41.3983 23.796Z" fill="white"/>
<path d="M57.099 27.2196C56.8562 27.2196 56.6377 27.1346 56.4434 26.9647C56.2734 26.7947 56.1885 26.5762 56.1885 26.3091V9.19078C56.1885 8.94797 56.2734 8.74158 56.4434 8.57161C56.6377 8.37736 56.8562 8.28023 57.099 8.28023H60.6684C60.9354 8.28023 61.154 8.37736 61.3239 8.57161C61.4939 8.74158 61.5789 8.94797 61.5789 9.19078V10.6477C62.1859 9.89494 62.9386 9.31219 63.8371 8.89941C64.7355 8.48662 65.7553 8.28023 66.8965 8.28023H68.4626C68.7297 8.28023 68.9483 8.36522 69.1182 8.53519C69.2882 8.70516 69.3732 8.92369 69.3732 9.19078V12.3595C69.3732 12.6023 69.2882 12.8087 69.1182 12.9787C68.9483 13.1486 68.7297 13.2336 68.4626 13.2336H65.2939C64.2013 13.2336 63.3514 13.5371 62.7444 14.1442C62.1616 14.7512 61.8703 15.5889 61.8703 16.6573V26.3091C61.8703 26.5762 61.7731 26.7947 61.5789 26.9647C61.4089 27.1346 61.2025 27.2196 60.9597 27.2196H57.099Z" fill="white"/>
<path d="M73.7273 27.2196C73.4602 27.2196 73.2417 27.1346 73.0717 26.9647C72.9017 26.7947 72.8168 26.5762 72.8168 26.3091V2.27062C72.8168 2.00353 72.9017 1.785 73.0717 1.61503C73.2417 1.44506 73.4602 1.36007 73.7273 1.36007H77.2967C77.5395 1.36007 77.7459 1.44506 77.9158 1.61503C78.1101 1.785 78.2072 2.00353 78.2072 2.27062V14.5812L83.7798 8.89941C83.974 8.72944 84.144 8.58375 84.2897 8.46234C84.4596 8.34094 84.7146 8.28023 85.0545 8.28023H89.2066C89.4251 8.28023 89.6073 8.36522 89.7529 8.53519C89.9229 8.68087 90.0079 8.86298 90.0079 9.08152C90.0079 9.17864 89.9836 9.28791 89.9351 9.40931C89.8865 9.53072 89.8015 9.62784 89.6801 9.70069L82.6507 16.7665L90.5906 25.8356C90.7849 26.0298 90.882 26.2241 90.882 26.4183C90.882 26.6369 90.8092 26.8311 90.6635 27.0011C90.5178 27.1468 90.3236 27.2196 90.0807 27.2196H85.8558C85.4916 27.2196 85.2245 27.1589 85.0545 27.0375C84.9088 26.9161 84.7389 26.7704 84.5446 26.6005L78.2072 19.4618V26.3091C78.2072 26.5762 78.1101 26.7947 77.9158 26.9647C77.7459 27.1346 77.5395 27.2196 77.2967 27.2196H73.7273Z" fill="white"/>
<path d="M101.807 27.5838C99.0143 27.5838 96.7925 26.8068 95.1414 25.2528C93.5145 23.6988 92.6526 21.4407 92.5554 18.4784C92.5554 18.2841 92.5554 18.0292 92.5554 17.7135C92.5554 17.3736 92.5554 17.1186 92.5554 16.9486C92.6526 15.0547 93.0775 13.44 93.8302 12.1045C94.5829 10.7448 95.6392 9.71283 96.9989 9.00867C98.3587 8.28023 99.9491 7.91602 101.77 7.91602C103.834 7.91602 105.546 8.34094 106.906 9.19078C108.265 10.0163 109.285 11.1576 109.965 12.6144C110.669 14.047 111.021 15.6982 111.021 17.5678V18.4055C111.021 18.6483 110.936 18.8669 110.766 19.0611C110.596 19.2311 110.378 19.3161 110.111 19.3161H98.2373C98.2373 19.3161 98.2373 19.3525 98.2373 19.4253C98.2373 19.4739 98.2373 19.5225 98.2373 19.571C98.2615 20.348 98.4072 21.0643 98.6743 21.7199C98.9414 22.3512 99.3299 22.8611 99.8398 23.2496C100.374 23.6381 101.017 23.8324 101.77 23.8324C102.353 23.8324 102.839 23.7474 103.227 23.5774C103.616 23.3832 103.931 23.1768 104.174 22.9583C104.441 22.7154 104.635 22.5091 104.757 22.3391C104.975 22.072 105.145 21.9142 105.267 21.8656C105.412 21.7928 105.619 21.7563 105.886 21.7563H109.747C109.965 21.7563 110.147 21.8292 110.293 21.9749C110.463 22.1206 110.536 22.3027 110.511 22.5212C110.487 22.934 110.281 23.4317 109.892 24.0145C109.528 24.573 108.982 25.1314 108.253 25.6899C107.525 26.2241 106.614 26.6733 105.522 27.0375C104.453 27.4017 103.215 27.5838 101.807 27.5838ZM98.2373 15.9653H105.34V15.856C105.34 15.0061 105.194 14.2656 104.902 13.6343C104.635 12.9787 104.235 12.4688 103.701 12.1045C103.166 11.7403 102.523 11.5582 101.77 11.5582C101.017 11.5582 100.374 11.7403 99.8398 12.1045C99.3299 12.4688 98.9293 12.9787 98.6379 13.6343C98.3708 14.2656 98.2373 15.0061 98.2373 15.856V15.9653Z" fill="white"/>
<path d="M124.46 27.2196C122.955 27.2196 121.668 26.9768 120.6 26.4912C119.556 25.9813 118.754 25.2043 118.196 24.1602C117.637 23.1161 117.358 21.8049 117.358 20.2266V12.578H114.517C114.25 12.578 114.032 12.493 113.862 12.3231C113.692 12.1531 113.607 11.9467 113.607 11.7039V9.19078C113.607 8.92369 113.692 8.70516 113.862 8.53519C114.032 8.36522 114.25 8.28023 114.517 8.28023H117.358V2.27062C117.358 2.00353 117.443 1.785 117.613 1.61503C117.807 1.44506 118.026 1.36007 118.269 1.36007H121.874C122.117 1.36007 122.324 1.44506 122.494 1.61503C122.664 1.785 122.749 2.00353 122.749 2.27062V8.28023H127.301C127.568 8.28023 127.787 8.36522 127.957 8.53519C128.127 8.70516 128.212 8.92369 128.212 9.19078V11.7039C128.212 11.9467 128.127 12.1531 127.957 12.3231C127.787 12.493 127.568 12.578 127.301 12.578H122.749V19.7896C122.749 20.7122 122.919 21.4407 123.259 21.9749C123.598 22.4848 124.169 22.7397 124.97 22.7397H127.629C127.896 22.7397 128.115 22.8247 128.285 22.9947C128.455 23.1646 128.54 23.371 128.54 23.6139V26.3091C128.54 26.5762 128.455 26.7947 128.285 26.9647C128.115 27.1346 127.896 27.2196 127.629 27.2196H124.46Z" fill="white"/>
<path d="M133.32 27.2196C133.053 27.2196 132.834 27.1346 132.664 26.9647C132.494 26.7947 132.409 26.5762 132.409 26.3091V2.27062C132.409 2.00353 132.494 1.785 132.664 1.61503C132.834 1.44506 133.053 1.36007 133.32 1.36007H137.253C137.52 1.36007 137.739 1.44506 137.909 1.61503C138.079 1.785 138.164 2.00353 138.164 2.27062V10.4655C138.795 9.68855 139.584 9.06938 140.531 8.60803C141.503 8.14669 142.656 7.91602 143.991 7.91602C145.424 7.91602 146.687 8.24381 147.779 8.89941C148.896 9.53072 149.758 10.4655 150.365 11.7039C150.997 12.918 151.312 14.3991 151.312 16.1474V26.3091C151.312 26.5762 151.227 26.7947 151.057 26.9647C150.887 27.1346 150.669 27.2196 150.402 27.2196H146.432C146.189 27.2196 145.982 27.1346 145.812 26.9647C145.643 26.7947 145.558 26.5762 145.558 26.3091V16.3659C145.558 15.079 145.242 14.0835 144.611 13.3793C143.979 12.6509 143.081 12.2866 141.915 12.2866C140.774 12.2866 139.864 12.6509 139.184 13.3793C138.504 14.0835 138.164 15.079 138.164 16.3659V26.3091C138.164 26.5762 138.079 26.7947 137.909 26.9647C137.739 27.1346 137.52 27.2196 137.253 27.2196H133.32Z" fill="white"/>
<path d="M157.273 27.2196C157.031 27.2196 156.812 27.1346 156.618 26.9647C156.448 26.7947 156.363 26.5762 156.363 26.3091V9.19078C156.363 8.92369 156.448 8.70516 156.618 8.53519C156.812 8.36522 157.031 8.28023 157.273 8.28023H160.952C161.195 8.28023 161.401 8.36522 161.571 8.53519C161.741 8.70516 161.826 8.92369 161.826 9.19078V26.3091C161.826 26.5762 161.741 26.7947 161.571 26.9647C161.401 27.1346 161.195 27.2196 160.952 27.2196H157.273ZM157.164 5.36648C156.921 5.36648 156.715 5.2815 156.545 5.11153C156.375 4.94156 156.29 4.72303 156.29 4.45594V1.50576C156.29 1.26295 156.375 1.05656 156.545 0.886588C156.715 0.692339 156.921 0.595215 157.164 0.595215H161.025C161.268 0.595215 161.474 0.692339 161.644 0.886588C161.838 1.05656 161.935 1.26295 161.935 1.50576V4.45594C161.935 4.72303 161.838 4.94156 161.644 5.11153C161.474 5.2815 161.268 5.36648 161.025 5.36648H157.164Z" fill="white"/>
<path d="M168.032 27.2196C167.789 27.2196 167.571 27.1346 167.377 26.9647C167.207 26.7947 167.122 26.5762 167.122 26.3091V9.19078C167.122 8.92369 167.207 8.70516 167.377 8.53519C167.571 8.36522 167.789 8.28023 168.032 8.28023H171.601C171.869 8.28023 172.087 8.36522 172.257 8.53519C172.427 8.70516 172.512 8.92369 172.512 9.19078V10.6112C173.143 9.83423 173.957 9.19078 174.952 8.68088C175.972 8.17097 177.186 7.91602 178.594 7.91602C180.027 7.91602 181.29 8.24381 182.382 8.89941C183.475 9.53072 184.325 10.4655 184.932 11.7039C185.539 12.918 185.842 14.3991 185.842 16.1474V26.3091C185.842 26.5762 185.757 26.7947 185.587 26.9647C185.418 27.1346 185.199 27.2196 184.932 27.2196H181.071C180.804 27.2196 180.586 27.1346 180.416 26.9647C180.246 26.7947 180.161 26.5762 180.161 26.3091V16.3659C180.161 15.079 179.845 14.0835 179.214 13.3793C178.607 12.6509 177.708 12.2866 176.518 12.2866C175.377 12.2866 174.467 12.6509 173.787 13.3793C173.131 14.0835 172.803 15.079 172.803 16.3659V26.3091C172.803 26.5762 172.718 26.7947 172.548 26.9647C172.378 27.1346 172.16 27.2196 171.893 27.2196H168.032Z" fill="white"/>
<path d="M191.845 27.2196C191.578 27.2196 191.36 27.1346 191.19 26.9647C191.02 26.7947 190.935 26.5762 190.935 26.3091V2.27062C190.935 2.00353 191.02 1.785 191.19 1.61503C191.36 1.44506 191.578 1.36007 191.845 1.36007H195.415C195.657 1.36007 195.864 1.44506 196.034 1.61503C196.228 1.785 196.325 2.00353 196.325 2.27062V14.5812L201.898 8.89941C202.092 8.72944 202.262 8.58375 202.408 8.46234C202.578 8.34094 202.832 8.28023 203.172 8.28023H207.325C207.543 8.28023 207.725 8.36522 207.871 8.53519C208.041 8.68087 208.126 8.86298 208.126 9.08152C208.126 9.17864 208.102 9.28791 208.053 9.40931C208.004 9.53072 207.919 9.62784 207.798 9.70069L200.769 16.7665L208.709 25.8356C208.903 26.0298 209 26.2241 209 26.4183C209 26.6369 208.927 26.8311 208.781 27.0011C208.636 27.1468 208.441 27.2196 208.199 27.2196H203.974C203.609 27.2196 203.342 27.1589 203.172 27.0375C203.027 26.9161 202.857 26.7704 202.663 26.6005L196.325 19.4618V26.3091C196.325 26.5762 196.228 26.7947 196.034 26.9647C195.864 27.1346 195.657 27.2196 195.415 27.2196H191.845Z" fill="white"/>
</svg>
