<svg width="291" height="38" viewBox="0 0 291 38" fill="none" xmlns="http://www.w3.org/2000/svg">
<path d="M1.35652 37.3692C1.01848 37.3692 0.714241 37.2509 0.443809 37.0142C0.207181 36.7776 0.0888672 36.4734 0.0888672 36.1015V12.2697C0.0888672 11.8979 0.207181 11.5936 0.443809 11.357C0.714241 11.1204 1.01848 11.0021 1.35652 11.0021H6.07218C6.44402 11.0021 6.74826 11.1204 6.98488 11.357C7.22151 11.5936 7.33983 11.8979 7.33983 12.2697V13.9937C8.04971 13.0472 8.99622 12.2359 10.1794 11.5598C11.3963 10.8838 12.833 10.5288 14.4894 10.495C18.3768 10.4274 21.0642 11.9148 22.5516 14.9571C23.3291 13.6388 24.4446 12.574 25.8982 11.7627C27.3518 10.9176 28.9575 10.495 30.7153 10.495C32.4731 10.495 34.0619 10.9007 35.4817 11.7119C36.9014 12.4894 38.0339 13.7064 38.879 15.3628C39.7241 16.9854 40.1466 19.0812 40.1466 21.6503V36.1015C40.1466 36.4734 40.0114 36.7776 39.741 37.0142C39.5043 37.2509 39.217 37.3692 38.879 37.3692H33.8591C33.4872 37.3692 33.183 37.2509 32.9464 37.0142C32.7097 36.7776 32.5914 36.4734 32.5914 36.1015V22.056C32.5914 20.67 32.3886 19.5883 31.9829 18.8108C31.6111 18.0333 31.0871 17.4755 30.4111 17.1375C29.7688 16.7656 29.042 16.5797 28.2307 16.5797C27.5208 16.5797 26.8278 16.7656 26.1517 17.1375C25.5095 17.4755 24.9686 18.0333 24.5292 18.8108C24.1235 19.5883 23.9207 20.67 23.9207 22.056V36.1015C23.9207 36.4734 23.8024 36.7776 23.5657 37.0142C23.3291 37.2509 23.0418 37.3692 22.7037 37.3692H17.6838C17.312 37.3692 17.0078 37.2509 16.7711 37.0142C16.5345 36.7776 16.4162 36.4734 16.4162 36.1015V22.056C16.4162 20.67 16.2134 19.5883 15.8077 18.8108C15.4021 18.0333 14.8612 17.4755 14.1851 17.1375C13.5429 16.7656 12.833 16.5797 12.0555 16.5797C11.3456 16.5797 10.6526 16.7656 9.97654 17.1375C9.33426 17.4755 8.7934 18.0333 8.35394 18.8108C7.9483 19.5883 7.74547 20.6531 7.74547 22.0053V36.1015C7.74547 36.4734 7.62716 36.7776 7.39053 37.0142C7.1539 37.2509 6.84967 37.3692 6.47782 37.3692H1.35652Z" fill="white"/>
<path d="M55.0126 37.8762C53.221 37.8762 51.6153 37.5382 50.1955 36.8621C48.7757 36.1522 47.6433 35.2057 46.7982 34.0226C45.9531 32.8395 45.5306 31.5211 45.5306 30.0675C45.5306 27.6674 46.494 25.7744 48.4208 24.3885C50.3814 23.0025 52.9505 22.056 56.1281 21.5489L62.7706 20.5855V19.6728C62.7706 18.3544 62.4664 17.3403 61.8579 16.6304C61.2494 15.9205 60.1846 15.5656 58.6634 15.5656C57.5479 15.5656 56.6521 15.7853 55.976 16.2248C55.3337 16.6642 54.8267 17.2389 54.4548 17.9488C54.1844 18.3882 53.7787 18.608 53.2379 18.608H48.4208C48.049 18.608 47.7616 18.5066 47.5588 18.3037C47.356 18.0671 47.2715 17.7967 47.3053 17.4924C47.3053 16.9178 47.525 16.2417 47.9644 15.4642C48.4039 14.6867 49.08 13.9261 49.9927 13.1824C50.9054 12.4049 52.0716 11.7627 53.4914 11.2556C54.945 10.7485 56.6859 10.495 58.7141 10.495C60.8438 10.495 62.6692 10.7485 64.1904 11.2556C65.7115 11.7627 66.9285 12.4725 67.8412 13.3852C68.7877 14.298 69.4638 15.3628 69.8694 16.5797C70.3089 17.7629 70.5286 19.0474 70.5286 20.4334V36.1015C70.5286 36.4734 70.4103 36.7776 70.1737 37.0142C69.937 37.2509 69.6497 37.3692 69.3117 37.3692H64.2918C63.9537 37.3692 63.6664 37.2509 63.4298 37.0142C63.1931 36.7776 63.0748 36.4734 63.0748 36.1015V34.2254C62.6354 34.8677 62.0438 35.4762 61.3001 36.0508C60.5564 36.5917 59.6606 37.0311 58.6127 37.3692C57.5986 37.7072 56.3985 37.8762 55.0126 37.8762ZM57.0408 32.6028C58.1563 32.6028 59.1536 32.3662 60.0325 31.8929C60.9114 31.4197 61.6044 30.6929 62.1114 29.7126C62.6185 28.7323 62.872 27.4984 62.872 26.011V25.149L58.1563 25.9096C56.3647 26.2139 55.0464 26.6702 54.2013 27.2787C53.3562 27.8872 52.9336 28.6309 52.9336 29.5098C52.9336 30.152 53.1196 30.7098 53.4914 31.1831C53.897 31.6225 54.4041 31.9774 55.0126 32.2479C55.6549 32.4845 56.3309 32.6028 57.0408 32.6028Z" fill="white"/>
<path d="M78.8991 37.3692C78.561 37.3692 78.2568 37.2509 77.9864 37.0142C77.7497 36.7776 77.6314 36.4734 77.6314 36.1015V12.2697C77.6314 11.9317 77.7497 11.6443 77.9864 11.4077C78.2568 11.1373 78.561 11.0021 78.8991 11.0021H83.8682C84.2401 11.0021 84.5443 11.1373 84.781 11.4077C85.0176 11.6443 85.1359 11.9317 85.1359 12.2697V14.298C85.981 13.25 87.0289 12.4387 88.2797 11.8641C89.5304 11.2894 90.9502 11.0021 92.539 11.0021H94.7193C95.0912 11.0021 95.3954 11.1204 95.632 11.357C95.8687 11.5936 95.987 11.8979 95.987 12.2697V16.6811C95.987 17.0192 95.8687 17.3065 95.632 17.5431C95.3954 17.7798 95.0912 17.8981 94.7193 17.8981H90.3079C88.7867 17.8981 87.6036 18.3206 86.7585 19.1657C85.9472 20.0108 85.5415 21.1771 85.5415 22.6644V36.1015C85.5415 36.4734 85.4063 36.7776 85.1359 37.0142C84.8993 37.2509 84.6119 37.3692 84.2739 37.3692H78.8991Z" fill="white"/>
<path d="M102.049 37.3692C101.677 37.3692 101.373 37.2509 101.136 37.0142C100.899 36.7776 100.781 36.4734 100.781 36.1015V2.63557C100.781 2.26373 100.899 1.95949 101.136 1.72287C101.373 1.48624 101.677 1.36792 102.049 1.36792H107.018C107.356 1.36792 107.643 1.48624 107.88 1.72287C108.15 1.95949 108.286 2.26373 108.286 2.63557V19.7742L116.044 11.8641C116.314 11.6274 116.551 11.4246 116.753 11.2556C116.99 11.0866 117.345 11.0021 117.818 11.0021H123.599C123.903 11.0021 124.157 11.1204 124.359 11.357C124.596 11.5598 124.714 11.8134 124.714 12.1176C124.714 12.2528 124.68 12.4049 124.613 12.574C124.545 12.743 124.427 12.8782 124.258 12.9796L114.472 22.8166L125.526 35.4424C125.796 35.7128 125.931 35.9832 125.931 36.2537C125.931 36.5579 125.83 36.8283 125.627 37.0649C125.424 37.2678 125.154 37.3692 124.816 37.3692H118.934C118.427 37.3692 118.055 37.2847 117.818 37.1157C117.615 36.9466 117.379 36.7438 117.108 36.5072L108.286 26.5688V36.1015C108.286 36.4734 108.15 36.7776 107.88 37.0142C107.643 37.2509 107.356 37.3692 107.018 37.3692H102.049Z" fill="white"/>
<path d="M141.14 37.8762C137.253 37.8762 134.16 36.7945 131.861 34.6311C129.596 32.4676 128.396 29.3238 128.261 25.1997C128.261 24.9293 128.261 24.5744 128.261 24.1349C128.261 23.6617 128.261 23.3067 128.261 23.0701C128.396 20.4334 128.988 18.1854 130.036 16.3262C131.084 14.4332 132.554 12.9965 134.447 12.0162C136.34 11.0021 138.554 10.495 141.09 10.495C143.963 10.495 146.346 11.0866 148.239 12.2697C150.132 13.4191 151.552 15.0078 152.498 17.0361C153.479 19.0305 153.969 21.3292 153.969 23.9321V25.0983C153.969 25.4364 153.851 25.7406 153.614 26.011C153.377 26.2477 153.073 26.366 152.701 26.366H136.171C136.171 26.366 136.171 26.4167 136.171 26.5181C136.171 26.5857 136.171 26.6533 136.171 26.7209C136.205 27.8027 136.408 28.7999 136.78 29.7126C137.151 30.5915 137.692 31.3014 138.402 31.8422C139.146 32.3831 140.042 32.6535 141.09 32.6535C141.901 32.6535 142.577 32.5352 143.118 32.2986C143.659 32.0282 144.098 31.7408 144.436 31.4366C144.808 31.0985 145.078 30.8112 145.247 30.5746C145.552 30.2027 145.788 29.983 145.957 29.9154C146.16 29.814 146.448 29.7633 146.819 29.7633H152.194C152.498 29.7633 152.752 29.8647 152.955 30.0675C153.191 30.2703 153.293 30.5239 153.259 30.8281C153.225 31.4028 152.938 32.0958 152.397 32.9071C151.89 33.6846 151.129 34.462 150.115 35.2395C149.101 35.9832 147.833 36.6086 146.312 37.1157C144.825 37.6227 143.101 37.8762 141.14 37.8762ZM136.171 21.701H146.059V21.5489C146.059 20.3658 145.856 19.3348 145.45 18.4558C145.078 17.5431 144.521 16.8333 143.777 16.3262C143.033 15.8191 142.137 15.5656 141.09 15.5656C140.042 15.5656 139.146 15.8191 138.402 16.3262C137.692 16.8333 137.134 17.5431 136.729 18.4558C136.357 19.3348 136.171 20.3658 136.171 21.5489V21.701Z" fill="white"/>
<path d="M172.679 37.3692C170.583 37.3692 168.791 37.0311 167.304 36.3551C165.85 35.6452 164.735 34.5635 163.957 33.1099C163.18 31.6563 162.791 29.8309 162.791 27.6336V16.9854H158.836C158.464 16.9854 158.16 16.8671 157.923 16.6304C157.687 16.3938 157.568 16.1065 157.568 15.7684V12.2697C157.568 11.8979 157.687 11.5936 157.923 11.357C158.16 11.1204 158.464 11.0021 158.836 11.0021H162.791V2.63557C162.791 2.26373 162.909 1.95949 163.146 1.72287C163.416 1.48624 163.721 1.36792 164.059 1.36792H169.078C169.417 1.36792 169.704 1.48624 169.94 1.72287C170.177 1.95949 170.295 2.26373 170.295 2.63557V11.0021H176.634C177.006 11.0021 177.31 11.1204 177.546 11.357C177.783 11.5936 177.901 11.8979 177.901 12.2697V15.7684C177.901 16.1065 177.783 16.3938 177.546 16.6304C177.31 16.8671 177.006 16.9854 176.634 16.9854H170.295V27.0252C170.295 28.3097 170.532 29.3238 171.005 30.0675C171.479 30.7774 172.273 31.1323 173.388 31.1323H177.09C177.462 31.1323 177.766 31.2507 178.003 31.4873C178.239 31.7239 178.358 32.0113 178.358 32.3493V36.1015C178.358 36.4734 178.239 36.7776 178.003 37.0142C177.766 37.2509 177.462 37.3692 177.09 37.3692H172.679Z" fill="white"/>
<path d="M185.012 37.3692C184.641 37.3692 184.336 37.2509 184.1 37.0142C183.863 36.7776 183.745 36.4734 183.745 36.1015V2.63557C183.745 2.26373 183.863 1.95949 184.1 1.72287C184.336 1.48624 184.641 1.36792 185.012 1.36792H190.489C190.861 1.36792 191.165 1.48624 191.401 1.72287C191.638 1.95949 191.756 2.26373 191.756 2.63557V14.0444C192.635 12.9627 193.734 12.1007 195.052 11.4584C196.404 10.8161 198.01 10.495 199.869 10.495C201.864 10.495 203.622 10.9514 205.143 11.8641C206.698 12.743 207.898 14.0444 208.743 15.7684C209.622 17.4586 210.061 19.5207 210.061 21.9546V36.1015C210.061 36.4734 209.943 36.7776 209.706 37.0142C209.47 37.2509 209.165 37.3692 208.794 37.3692H203.267C202.929 37.3692 202.641 37.2509 202.405 37.0142C202.168 36.7776 202.05 36.4734 202.05 36.1015V22.2588C202.05 20.4672 201.61 19.0812 200.731 18.1009C199.852 17.0868 198.602 16.5797 196.979 16.5797C195.39 16.5797 194.123 17.0868 193.176 18.1009C192.23 19.0812 191.756 20.4672 191.756 22.2588V36.1015C191.756 36.4734 191.638 36.7776 191.401 37.0142C191.165 37.2509 190.861 37.3692 190.489 37.3692H185.012Z" fill="white"/>
<path d="M218.36 37.3692C218.022 37.3692 217.718 37.2509 217.448 37.0142C217.211 36.7776 217.093 36.4734 217.093 36.1015V12.2697C217.093 11.8979 217.211 11.5936 217.448 11.357C217.718 11.1204 218.022 11.0021 218.36 11.0021H223.482C223.82 11.0021 224.107 11.1204 224.344 11.357C224.58 11.5936 224.699 11.8979 224.699 12.2697V36.1015C224.699 36.4734 224.58 36.7776 224.344 37.0142C224.107 37.2509 223.82 37.3692 223.482 37.3692H218.36ZM218.208 6.94559C217.87 6.94559 217.583 6.82727 217.346 6.59064C217.11 6.35401 216.991 6.04978 216.991 5.67794V1.57075C216.991 1.23271 217.11 0.945375 217.346 0.708746C217.583 0.438316 217.87 0.303101 218.208 0.303101H223.583C223.921 0.303101 224.208 0.438316 224.445 0.708746C224.716 0.945375 224.851 1.23271 224.851 1.57075V5.67794C224.851 6.04978 224.716 6.35401 224.445 6.59064C224.208 6.82727 223.921 6.94559 223.583 6.94559H218.208Z" fill="white"/>
<path d="M233.338 37.3692C233 37.3692 232.696 37.2509 232.426 37.0142C232.189 36.7776 232.071 36.4734 232.071 36.1015V12.2697C232.071 11.8979 232.189 11.5936 232.426 11.357C232.696 11.1204 233 11.0021 233.338 11.0021H238.308C238.679 11.0021 238.984 11.1204 239.22 11.357C239.457 11.5936 239.575 11.8979 239.575 12.2697V14.2472C240.454 13.1655 241.587 12.2697 242.973 11.5598C244.392 10.8499 246.083 10.495 248.043 10.495C250.038 10.495 251.795 10.9514 253.317 11.8641C254.838 12.743 256.021 14.0444 256.866 15.7684C257.711 17.4586 258.134 19.5207 258.134 21.9546V36.1015C258.134 36.4734 258.015 36.7776 257.779 37.0142C257.542 37.2509 257.238 37.3692 256.866 37.3692H251.491C251.119 37.3692 250.815 37.2509 250.578 37.0142C250.342 36.7776 250.224 36.4734 250.224 36.1015V22.2588C250.224 20.4672 249.784 19.0812 248.905 18.1009C248.06 17.0868 246.809 16.5797 245.153 16.5797C243.564 16.5797 242.296 17.0868 241.35 18.1009C240.437 19.0812 239.981 20.4672 239.981 22.2588V36.1015C239.981 36.4734 239.863 36.7776 239.626 37.0142C239.389 37.2509 239.085 37.3692 238.713 37.3692H233.338Z" fill="white"/>
<path d="M266.491 37.3692C266.119 37.3692 265.815 37.2509 265.578 37.0142C265.341 36.7776 265.223 36.4734 265.223 36.1015V2.63557C265.223 2.26373 265.341 1.95949 265.578 1.72287C265.815 1.48624 266.119 1.36792 266.491 1.36792H271.46C271.798 1.36792 272.085 1.48624 272.322 1.72287C272.592 1.95949 272.727 2.26373 272.727 2.63557V19.7742L280.486 11.8641C280.756 11.6274 280.993 11.4246 281.195 11.2556C281.432 11.0866 281.787 11.0021 282.26 11.0021H288.041C288.345 11.0021 288.598 11.1204 288.801 11.357C289.038 11.5598 289.156 11.8134 289.156 12.1176C289.156 12.2528 289.122 12.4049 289.055 12.574C288.987 12.743 288.869 12.8782 288.7 12.9796L278.914 22.8166L289.967 35.4424C290.238 35.7128 290.373 35.9832 290.373 36.2537C290.373 36.5579 290.272 36.8283 290.069 37.0649C289.866 37.2678 289.596 37.3692 289.258 37.3692H283.376C282.869 37.3692 282.497 37.2847 282.26 37.1157C282.057 36.9466 281.821 36.7438 281.55 36.5072L272.727 26.5688V36.1015C272.727 36.4734 272.592 36.7776 272.322 37.0142C272.085 37.2509 271.798 37.3692 271.46 37.3692H266.491Z" fill="white"/>
</svg>
