<svg width="500" height="347" viewBox="0 0 500 347" fill="none" xmlns="http://www.w3.org/2000/svg">
<path d="M15.9019 346.431H483.368C491.785 346.431 498.636 339.582 498.636 331.163V16.2974C498.636 7.8789 491.785 1.02783 483.368 1.02783H15.9019C7.48341 1.02792 0.633301 7.87892 0.633301 16.2974V331.163C0.633384 339.582 7.48345 346.431 15.9019 346.431ZM15.9019 345.396C8.05278 345.396 1.66854 339.012 1.66846 331.163V16.2974C1.66846 8.44824 8.05273 2.06307 15.9019 2.06299H483.368C491.218 2.06299 497.602 8.44822 497.602 16.2974V331.163C497.602 339.012 491.218 345.396 483.368 345.396H15.9019Z" fill="white" stroke="#E0E0E0"/>
</svg>
